<svg xmlns="http://www.w3.org/2000/svg" 
xmlns:xlink="http://www.w3.org/1999/xlink" 
version="1.1" 
x="0px" y="0px" 
width="600px" height="600px" 
viewBox="0 0 600 600">
<path d="M22.12 28L11.36 28L11.36 26.97L12.64 26.77Q13.06 26.70 13.19 26.48Q13.32 26.26 13.32 25.65L13.32 25.65L13.32 14.84Q13.32 14.29 13.18 14.09Q13.04 13.88 12.60 13.81L12.60 13.81L11.36 13.61L11.36 12.58L17.66 12.58L17.66 13.61L16.20 13.83Q15.79 13.90 15.64 14.09Q15.50 14.27 15.50 14.84L15.50 14.84L15.50 26.81L17.99 26.81Q18.73 26.81 19.25 26.67Q19.77 26.53 20.15 26.14Q20.54 25.76 20.86 25.07Q21.18 24.39 21.51 23.31L21.51 23.31L22.67 23.31L22.12 28ZM30.79 28L24.87 28L24.87 26.94L26.13 26.75Q26.57 26.68 26.69 26.46Q26.81 26.24 26.81 25.62L26.81 25.62L26.81 19.57Q26.81 18.78 26.66 18.52Q26.52 18.25 26.02 18.19L26.02 18.19L24.96 18.03L25.11 16.96L28.59 16.78L28.85 16.89L28.85 25.71Q28.85 26.13 28.96 26.39Q29.07 26.66 29.56 26.75L29.56 26.75L30.79 26.97L30.79 28ZM27.51 14.36L27.51 14.36Q26.87 14.36 26.46 13.95Q26.04 13.55 26.04 12.91L26.04 12.91Q26.04 12.27 26.46 11.85Q26.87 11.43 27.51 11.43L27.51 11.43Q28.17 11.43 28.59 11.84Q29.01 12.25 29.01 12.89L29.01 12.89Q29.01 13.52 28.59 13.94Q28.17 14.36 27.51 14.36ZM36.77 28.31L36.77 28.31Q35.81 28.31 35.16 27.96Q34.51 27.60 34.19 26.88Q33.87 26.15 33.87 25.03L33.87 25.03L33.87 18.21L32.13 18.21L32.13 17.09Q32.90 17.02 33.41 16.62Q33.91 16.21 34.20 15.36Q34.49 14.51 34.57 13.17L34.57 13.17L35.63 13.04L35.92 13.17L35.92 16.85L39.33 16.85L39.33 18.21L35.92 18.21L35.92 24.88Q35.92 25.80 36.30 26.25Q36.69 26.70 37.48 26.70L37.48 26.70Q38.05 26.70 38.56 26.53Q39.06 26.35 39.59 26.00L39.59 26.00L40.07 26.77Q39.37 27.52 38.52 27.91Q37.68 28.31 36.77 28.31ZM46.45 28.31L46.45 28.31Q44.85 28.31 43.67 27.60Q42.49 26.90 41.84 25.60Q41.20 24.30 41.20 22.57L41.20 22.57Q41.20 20.74 41.87 19.39Q42.54 18.03 43.75 17.29Q44.96 16.54 46.56 16.54L46.56 16.54Q47.77 16.54 48.69 17.02Q49.60 17.51 50.11 18.39Q50.61 19.27 50.61 20.43L50.61 20.43Q50.61 20.89 50.53 21.43Q50.46 21.97 50.30 22.57L50.30 22.57L43.42 22.57Q43.46 23.84 43.90 24.78Q44.34 25.71 45.12 26.20Q45.90 26.68 46.96 26.68L46.96 26.68Q47.80 26.68 48.59 26.33Q49.38 25.98 50.00 25.36L50.00 25.36L50.77 26.11Q50.02 27.14 48.85 27.73Q47.69 28.31 46.45 28.31ZM43.42 21.36L43.42 21.36L48.48 21.36Q48.52 21.14 48.53 20.88Q48.54 20.63 48.54 20.34L48.54 20.34Q48.54 19.02 47.98 18.35Q47.42 17.68 46.32 17.68L46.32 17.68Q45.49 17.68 44.88 18.10Q44.28 18.52 43.90 19.33Q43.53 20.15 43.42 21.36ZM58.93 28L52.81 28L52.81 26.97L53.87 26.77Q54.22 26.70 54.33 26.49Q54.44 26.28 54.44 25.71L54.44 25.71L54.44 19.51Q54.44 18.74 54.31 18.47Q54.18 18.21 53.69 18.14L53.69 18.14L52.61 17.99L52.75 16.93L55.74 16.69L56.00 16.85L56.24 18.83L56.31 18.83Q56.95 17.70 57.78 17.12Q58.62 16.54 59.59 16.54L59.59 16.54Q60.62 16.54 61.24 17.11Q61.85 17.68 61.85 18.63L61.85 18.63Q61.85 19.20 61.69 19.59Q61.52 19.97 61.19 20.17Q60.86 20.37 60.38 20.37L60.38 20.37Q59.76 20.37 59.42 20.11Q59.08 19.86 59.08 19.40L59.08 19.40Q59.08 19.22 59.13 19.05Q59.17 18.87 59.27 18.64Q59.37 18.41 59.50 18.12L59.50 18.12Q59.02 17.88 58.49 18.05Q57.96 18.21 57.51 18.68Q57.06 19.16 56.77 19.83Q56.49 20.50 56.49 21.25L56.49 21.25L56.49 25.76Q56.49 26.28 56.58 26.47Q56.68 26.66 57.04 26.70L57.04 26.70L58.93 26.99L58.93 28ZM66.23 28.31L66.23 28.31Q64.85 28.31 64.00 27.49Q63.15 26.68 63.15 25.34L63.15 25.34Q63.15 24.13 63.76 23.38Q64.36 22.63 65.75 22.25Q67.13 21.86 69.47 21.75L69.47 21.75L69.47 20.23Q69.47 19.33 69.21 18.76Q68.96 18.19 68.44 17.91Q67.93 17.64 67.09 17.64L67.09 17.64Q66.50 17.64 65.91 17.83Q65.33 18.01 65.04 18.30L65.04 18.30Q65.26 18.63 65.40 18.87Q65.53 19.11 65.58 19.28Q65.64 19.44 65.64 19.55L65.64 19.55Q65.64 19.97 65.30 20.26Q64.96 20.54 64.45 20.54L64.45 20.54Q63.86 20.54 63.53 20.25Q63.20 19.95 63.20 19.40L63.20 19.40Q63.20 18.63 63.78 17.98Q64.36 17.33 65.32 16.93Q66.28 16.54 67.40 16.54L67.40 16.54Q68.78 16.54 69.70 16.97Q70.61 17.40 71.06 18.28Q71.51 19.16 71.51 20.50L71.51 20.50L71.51 25.82Q71.51 26.31 71.77 26.55Q72.02 26.79 72.50 26.79L72.50 26.79Q72.74 26.79 72.99 26.75Q73.23 26.70 73.54 26.61L73.54 26.61L73.76 27.43Q73.36 27.80 72.79 28.05Q72.22 28.31 71.73 28.31L71.73 28.31Q70.79 28.31 70.27 27.81Q69.75 27.32 69.64 26.35L69.64 26.35Q69.22 27.01 68.72 27.44Q68.21 27.87 67.60 28.09Q66.98 28.31 66.23 28.31ZM67.07 26.81L67.07 26.81Q67.75 26.81 68.29 26.50Q68.83 26.20 69.15 25.67Q69.47 25.14 69.47 24.48L69.47 24.48L69.47 22.87Q68.06 22.87 67.12 23.12Q66.19 23.36 65.74 23.85Q65.29 24.35 65.29 25.10L65.29 25.10Q65.29 25.89 65.77 26.35Q66.25 26.81 67.07 26.81ZM79.32 28.31L79.32 28.31Q78.35 28.31 77.70 27.96Q77.06 27.60 76.74 26.88Q76.42 26.15 76.42 25.03L76.42 25.03L76.42 18.21L74.68 18.21L74.68 17.09Q75.45 17.02 75.96 16.62Q76.46 16.21 76.75 15.36Q77.03 14.51 77.12 13.17L77.12 13.17L78.18 13.04L78.46 13.17L78.46 16.85L81.87 16.85L81.87 18.21L78.46 18.21L78.46 24.88Q78.46 25.80 78.85 26.25Q79.23 26.70 80.03 26.70L80.03 26.70Q80.60 26.70 81.10 26.53Q81.61 26.35 82.14 26.00L82.14 26.00L82.62 26.77Q81.92 27.52 81.07 27.91Q80.22 28.31 79.32 28.31ZM86.96 28.31L86.96 28.31Q85.57 28.31 84.72 27.49Q83.88 26.68 83.88 25.34L83.88 25.34Q83.88 24.13 84.48 23.38Q85.09 22.63 86.47 22.25Q87.86 21.86 90.19 21.75L90.19 21.75L90.19 20.23Q90.19 19.33 89.94 18.76Q89.68 18.19 89.17 17.91Q88.65 17.64 87.81 17.64L87.81 17.64Q87.22 17.64 86.64 17.83Q86.05 18.01 85.77 18.30L85.77 18.30Q85.99 18.63 86.12 18.87Q86.25 19.11 86.31 19.28Q86.36 19.44 86.36 19.55L86.36 19.55Q86.36 19.97 86.02 20.26Q85.68 20.54 85.17 20.54L85.17 20.54Q84.58 20.54 84.25 20.25Q83.92 19.95 83.92 19.40L83.92 19.40Q83.92 18.63 84.50 17.98Q85.09 17.33 86.04 16.93Q87 16.54 88.12 16.54L88.12 16.54Q89.51 16.54 90.42 16.97Q91.33 17.40 91.78 18.28Q92.24 19.16 92.24 20.50L92.24 20.50L92.24 25.82Q92.24 26.31 92.49 26.55Q92.74 26.79 93.23 26.79L93.23 26.79Q93.47 26.79 93.71 26.75Q93.95 26.70 94.26 26.61L94.26 26.61L94.48 27.43Q94.08 27.80 93.51 28.05Q92.94 28.31 92.46 28.31L92.46 28.31Q91.51 28.31 90.99 27.81Q90.48 27.32 90.37 26.35L90.37 26.35Q89.95 27.01 89.44 27.44Q88.94 27.87 88.32 28.09Q87.70 28.31 86.96 28.31ZM87.79 26.81L87.79 26.81Q88.47 26.81 89.01 26.50Q89.55 26.20 89.87 25.67Q90.19 25.14 90.19 24.48L90.19 24.48L90.19 22.87Q88.78 22.87 87.85 23.12Q86.91 23.36 86.46 23.85Q86.01 24.35 86.01 25.10L86.01 25.10Q86.01 25.89 86.49 26.35Q86.98 26.81 87.79 26.81Z"/>
<path d="M22.12 68L11.21 68L11.21 67.27Q12.05 67.23 12.35 66.89Q12.66 66.55 12.70 65.94Q12.73 65.34 12.73 64.57L12.73 64.57L12.73 55.06Q12.73 54.62 12.75 54.22Q12.77 53.81 12.79 53.48L12.79 53.48Q12.40 53.50 12.00 53.52Q11.61 53.55 11.21 53.57L11.21 53.57L11.21 52.60L16.16 52.60L16.16 53.33Q15.35 53.35 15.03 53.70Q14.71 54.05 14.68 54.65Q14.64 55.24 14.64 56.03L14.64 56.03L14.64 65.47Q14.64 66.06 14.63 66.48Q14.62 66.90 14.58 67.19L14.58 67.19L18.69 67.12Q20.08 67.10 20.79 66.24Q21.51 65.38 21.51 63.45L21.51 63.45L22.25 63.45L22.12 68ZM29.14 68.35L29.14 68.35Q27.60 68.35 26.35 67.64Q25.09 66.92 24.36 65.66Q23.62 64.39 23.62 62.76L23.62 62.76Q23.62 61.03 24.34 59.64Q25.07 58.25 26.32 57.45Q27.58 56.65 29.14 56.65L29.14 56.65Q30.68 56.65 31.93 57.38Q33.19 58.12 33.94 59.38Q34.68 60.63 34.68 62.24L34.68 62.24Q34.68 63.93 33.95 65.33Q33.21 66.72 31.96 67.54Q30.70 68.35 29.14 68.35ZM29.32 67.47L29.32 67.47Q30.48 67.47 31.16 66.81Q31.85 66.15 32.14 65.10Q32.44 64.04 32.44 62.87L32.44 62.87Q32.44 61.88 32.25 60.93Q32.07 59.97 31.67 59.19Q31.27 58.41 30.65 57.95Q30.02 57.48 29.14 57.48L29.14 57.48Q28.00 57.48 27.27 58.14Q26.54 58.80 26.20 59.86Q25.86 60.92 25.86 62.13L25.86 62.13Q25.86 63.49 26.24 64.71Q26.61 65.93 27.38 66.70Q28.15 67.47 29.32 67.47ZM36.55 68L36.55 67.34Q37.24 67.34 37.50 67.00Q37.76 66.66 37.81 66.05Q37.85 65.45 37.85 64.66L37.85 64.66L37.85 59.64Q37.85 59.29 37.86 58.94Q37.87 58.58 37.94 58.21L37.94 58.21Q37.54 58.23 37.16 58.24Q36.77 58.25 36.38 58.28L36.38 58.28L36.38 57.37L37.06 57.37Q38.01 57.37 38.37 57.19Q38.73 57 38.97 56.78L38.97 56.78L39.61 56.78Q39.66 57.13 39.68 57.65Q39.70 58.17 39.72 58.96L39.72 58.96Q40.05 58.41 40.62 57.88Q41.20 57.35 41.91 57Q42.63 56.65 43.42 56.65L43.42 56.65Q44.03 56.65 44.50 56.98Q44.96 57.31 44.96 58.03L44.96 58.03Q44.96 58.21 44.85 58.46Q44.74 58.72 44.50 58.90Q44.25 59.09 43.86 59.09L43.86 59.09Q43.37 59.07 43.09 58.70Q42.80 58.34 42.87 57.86L42.87 57.86Q42.32 57.84 41.73 58.14Q41.15 58.45 40.65 58.99Q40.14 59.53 39.74 60.26L39.74 60.26L39.77 65.67Q39.77 66.11 39.75 66.45Q39.74 66.79 39.68 67.16L39.68 67.16Q40.03 67.14 40.37 67.13Q40.71 67.12 41.06 67.10L41.06 67.10L41.06 68L36.55 68ZM55.91 68L52.77 68Q52.70 67.63 52.68 67.34Q52.66 67.05 52.61 66.75L52.61 66.75Q51.87 67.49 51.00 67.92Q50.13 68.35 49.16 68.35L49.16 68.35Q47.49 68.35 46.67 67.59Q45.86 66.83 45.86 65.73L45.86 65.73Q45.86 64.72 46.49 63.98Q47.11 63.25 48.11 62.77Q49.12 62.30 50.29 62.07Q51.47 61.84 52.57 61.86L52.57 61.86L52.57 60.50Q52.57 59.73 52.44 59.05Q52.31 58.36 51.87 57.92Q51.43 57.48 50.46 57.46L50.46 57.46Q49.82 57.44 49.15 57.70Q48.48 57.97 48.17 58.61L48.17 58.61Q48.35 58.78 48.40 59.01Q48.46 59.24 48.46 59.44L48.46 59.44Q48.46 59.71 48.24 60.05Q48.02 60.39 47.47 60.37L47.47 60.37Q47.00 60.37 46.76 60.05Q46.52 59.73 46.52 59.29L46.52 59.29Q46.52 58.54 47.08 57.95Q47.64 57.35 48.63 57Q49.62 56.65 50.88 56.65L50.88 56.65Q52.72 56.65 53.60 57.63Q54.48 58.61 54.46 60.72L54.46 60.72Q54.46 61.53 54.46 62.36Q54.46 63.18 54.45 64.01Q54.44 64.83 54.44 65.67L54.44 65.67Q54.44 66.02 54.42 66.37Q54.40 66.72 54.35 67.16L54.35 67.16Q54.75 67.14 55.13 67.12Q55.52 67.10 55.91 67.08L55.91 67.08L55.91 68ZM52.57 62.61L52.57 62.61Q51.82 62.63 51.00 62.80Q50.17 62.96 49.48 63.29Q48.79 63.62 48.36 64.16Q47.93 64.70 47.95 65.47L47.95 65.47Q47.99 66.28 48.49 66.69Q48.98 67.10 49.67 67.10L49.67 67.10Q50.57 67.10 51.24 66.76Q51.91 66.42 52.57 65.80L52.57 65.80Q52.55 65.56 52.55 65.27Q52.55 64.99 52.55 64.68L52.55 64.68Q52.55 64.57 52.56 63.97Q52.57 63.38 52.57 62.61Z"/>
<path d="M13.09 108L11.54 108L11.54 92.16L13.03 92.16L19.25 105.48L25.44 92.16L26.95 92.16L26.95 107.99L25.41 107.99L25.41 95.77L19.77 108L18.72 108L13.09 95.77L13.09 108ZM33.43 108.33L33.43 108.33Q32.09 108.33 31.18 107.85Q30.27 107.36 29.82 106.56Q29.37 105.76 29.37 104.81L29.37 104.81Q29.37 103.84 29.76 103.15Q30.15 102.47 30.83 102.03Q31.50 101.59 32.40 101.36L32.40 101.36Q33.30 101.14 34.39 100.97Q35.49 100.80 36.54 100.67Q37.59 100.54 38.38 100.42L38.38 100.42L37.81 100.77Q37.84 99.01 37.13 98.17Q36.41 97.32 34.64 97.32L34.64 97.32Q33.42 97.32 32.58 97.87Q31.74 98.42 31.39 99.61L31.39 99.61L29.82 99.14Q30.23 97.55 31.46 96.67Q32.69 95.79 34.66 95.79L34.66 95.79Q36.29 95.79 37.43 96.40Q38.57 97.01 39.04 98.17L39.04 98.17Q39.26 98.68 39.33 99.32Q39.39 99.96 39.39 100.62L39.39 100.62L39.39 108L37.95 108L37.95 105.02L38.37 105.19Q37.76 106.72 36.49 107.53Q35.21 108.33 33.43 108.33ZM33.62 106.93L33.62 106.93Q34.75 106.93 35.60 106.53Q36.44 106.12 36.96 105.41Q37.48 104.70 37.63 103.81L37.63 103.81Q37.76 103.24 37.77 102.55Q37.79 101.86 37.79 101.52L37.79 101.52L38.40 101.84Q37.58 101.95 36.61 102.06Q35.65 102.17 34.72 102.31Q33.79 102.46 33.05 102.65L33.05 102.65Q32.54 102.80 32.07 103.06Q31.59 103.31 31.29 103.74Q30.99 104.17 30.99 104.81L30.99 104.81Q30.99 105.33 31.25 105.81Q31.50 106.30 32.08 106.61Q32.66 106.93 33.62 106.93ZM52.46 108L50.83 108L50.83 101.94Q50.83 100.95 50.65 100.12Q50.46 99.29 50.05 98.67Q49.63 98.05 48.98 97.70Q48.32 97.36 47.39 97.36L47.39 97.36Q46.53 97.36 45.88 97.66Q45.22 97.96 44.78 98.51Q44.33 99.07 44.10 99.86Q43.87 100.65 43.87 101.66L43.87 101.66L42.73 101.41Q42.73 99.59 43.36 98.34Q44.00 97.10 45.12 96.46Q46.25 95.82 47.70 95.82L47.70 95.82Q48.76 95.82 49.56 96.15Q50.36 96.48 50.91 97.04Q51.47 97.61 51.81 98.33Q52.15 99.05 52.31 99.85Q52.46 100.66 52.46 101.47L52.46 101.47L52.46 108ZM43.87 108L42.24 108L42.24 96.12L43.70 96.12L43.70 99.05L43.87 99.05L43.87 108ZM56.94 108L55.32 108L55.32 96.12L56.77 96.12L56.77 98.98L56.49 98.61Q56.68 98.08 57.00 97.63Q57.32 97.19 57.70 96.90L57.70 96.90Q58.16 96.49 58.77 96.28Q59.39 96.06 60.02 96.03Q60.64 95.99 61.16 96.12L61.16 96.12L61.16 97.64Q60.51 97.47 59.74 97.56Q58.97 97.65 58.32 98.18L58.32 98.18Q57.73 98.64 57.43 99.28Q57.13 99.93 57.04 100.65Q56.94 101.37 56.94 102.07L56.94 102.07L56.94 108ZM67.99 108.33L67.99 108.33Q66.22 108.33 64.97 107.53Q63.71 106.72 63.04 105.31Q62.37 103.89 62.37 102.05L62.37 102.05Q62.37 100.18 63.05 98.77Q63.73 97.36 64.99 96.58Q66.25 95.79 67.99 95.79L67.99 95.79Q69.77 95.79 71.03 96.59Q72.29 97.39 72.96 98.80Q73.62 100.21 73.62 102.05L73.62 102.05Q73.62 103.92 72.95 105.33Q72.28 106.75 71.02 107.54Q69.75 108.33 67.99 108.33ZM67.99 106.78L67.99 106.78Q69.97 106.78 70.94 105.46Q71.91 104.15 71.91 102.05L71.91 102.05Q71.91 99.89 70.93 98.62Q69.96 97.34 67.99 97.34L67.99 97.34Q66.66 97.34 65.80 97.94Q64.93 98.54 64.51 99.60Q64.09 100.66 64.09 102.05L64.09 102.05Q64.09 104.19 65.08 105.49Q66.07 106.78 67.99 106.78ZM81.38 108.33L81.38 108.33Q79.74 108.33 78.61 107.50Q77.47 106.67 76.89 105.24Q76.31 103.82 76.31 102.05L76.31 102.05Q76.31 100.25 76.90 98.83Q77.48 97.42 78.63 96.60Q79.77 95.79 81.45 95.79L81.45 95.79Q83.07 95.79 84.24 96.61Q85.41 97.44 86.03 98.86Q86.65 100.28 86.65 102.05L86.65 102.05Q86.65 103.83 86.02 105.25Q85.39 106.67 84.22 107.50Q83.04 108.33 81.38 108.33ZM77.66 113.28L76.03 113.28L76.03 96.12L77.48 96.12L77.48 105.06L77.66 105.06L77.66 113.28ZM81.21 106.82L81.21 106.82Q82.46 106.82 83.28 106.20Q84.11 105.57 84.52 104.49Q84.93 103.40 84.93 102.05L84.93 102.05Q84.93 100.71 84.53 99.63Q84.12 98.55 83.29 97.92Q82.46 97.30 81.18 97.30L81.18 97.30Q79.94 97.30 79.12 97.90Q78.30 98.51 77.89 99.58Q77.48 100.65 77.48 102.05L77.48 102.05Q77.48 103.42 77.89 104.51Q78.30 105.59 79.12 106.21Q79.95 106.82 81.21 106.82ZM94.09 108.33L94.09 108.33Q92.36 108.33 91.09 107.56Q89.82 106.79 89.11 105.39Q88.41 104.00 88.41 102.11L88.41 102.11Q88.41 100.17 89.10 98.75Q89.79 97.33 91.05 96.56Q92.31 95.79 94.03 95.79L94.03 95.79Q95.79 95.79 97.03 96.60Q98.28 97.41 98.91 98.91Q99.55 100.42 99.50 102.51L99.50 102.51L97.85 102.51L97.85 101.94Q97.80 99.63 96.85 98.45Q95.90 97.28 94.07 97.28L94.07 97.28Q92.16 97.28 91.14 98.52Q90.12 99.76 90.12 102.06L90.12 102.06Q90.12 104.30 91.14 105.54Q92.16 106.78 94.03 106.78L94.03 106.78Q95.31 106.78 96.26 106.19Q97.21 105.60 97.76 104.49L97.76 104.49L99.27 105.07Q98.56 106.63 97.19 107.48Q95.82 108.33 94.09 108.33ZM98.63 102.51L89.55 102.51L89.55 101.16L98.63 101.16L98.63 102.51Z"/>
<path d="M12.00 146.70L13.61 133.02L11.21 132.75L11.21 131.65L17.04 131.65L20.14 141.55L20.87 144.35L21.53 141.55L24.61 131.65L30.39 131.65L30.39 132.75L27.97 133.02L29.73 146.68L31.65 146.92L31.65 148L25.31 148L25.31 146.92L27.31 146.70L26.32 136.82L25.86 132.58L24.94 135.75L21.26 147.25L19.83 147.25L16.27 136.71L14.97 132.56L14.58 136.82L13.70 146.70L15.87 146.92L15.87 148L10.13 148L10.13 146.92L12.00 146.70ZM38.18 148.24Q35.52 148.24 34.12 146.50Q32.73 144.77 32.73 141.86L32.73 141.86Q32.73 139.95 33.45 138.50Q34.18 137.04 35.49 136.25Q36.80 135.46 38.47 135.46L38.47 135.46Q40.51 135.46 41.65 136.59Q42.78 137.73 42.85 139.84L42.85 139.84Q42.85 141.18 42.69 141.88L42.69 141.88L35.12 141.88Q35.17 144.06 36.14 145.39Q37.10 146.72 38.89 146.72L38.89 146.72Q39.77 146.72 40.72 146.41Q41.68 146.09 42.21 145.65L42.21 145.65L42.63 146.61Q41.99 147.27 40.73 147.76Q39.48 148.24 38.18 148.24L38.18 148.24ZM35.15 140.72L40.43 140.72Q40.49 140.26 40.49 139.77L40.49 139.77Q40.47 138.34 39.89 137.52Q39.30 136.69 38.05 136.69L38.05 136.69Q36.77 136.69 36.02 137.62Q35.26 138.54 35.15 140.72L35.15 140.72ZM44.78 148L44.78 146.92L46.43 146.79L46.43 137.48L44.85 137.09L44.85 135.90L47.88 135.50L47.93 135.50L48.41 135.90L48.41 136.30L48.35 138.01L48.41 138.01Q48.63 137.64 49.20 137.04Q49.78 136.45 50.68 135.96Q51.58 135.46 52.64 135.46L52.64 135.46Q53.08 135.46 53.36 135.57L53.36 135.57L53.36 138.03Q53.21 137.92 52.87 137.82Q52.53 137.73 52.11 137.73L52.11 137.73Q50.28 137.73 48.72 138.85L48.72 138.85L48.72 146.77L51.51 146.94L51.51 148L44.78 148ZM54.86 148L54.86 146.92L56.51 146.79L56.51 137.48L54.92 137.09L54.92 135.90L57.96 135.50L58.00 135.50L58.49 135.90L58.49 136.30L58.42 138.01L58.49 138.01Q58.71 137.64 59.28 137.04Q59.85 136.45 60.75 135.96Q61.66 135.46 62.71 135.46L62.71 135.46Q63.15 135.46 63.44 135.57L63.44 135.57L63.44 138.03Q63.28 137.92 62.94 137.82Q62.60 137.73 62.18 137.73L62.18 137.73Q60.36 137.73 58.80 138.85L58.80 138.85L58.80 146.77L61.59 146.94L61.59 148L54.86 148ZM67.49 133.59Q66.78 133.59 66.43 133.19Q66.08 132.80 66.08 132.18L66.08 132.18Q66.08 131.48 66.51 131.02Q66.94 130.55 67.68 130.55L67.68 130.55Q68.43 130.55 68.78 130.95Q69.14 131.35 69.14 131.96L69.14 131.96Q69.14 132.71 68.71 133.15Q68.28 133.59 67.51 133.59L67.51 133.59L67.49 133.59ZM66.61 146.72L66.61 137.48L64.93 137.09L64.93 135.92L68.34 135.50L68.39 135.50L68.89 135.90L68.89 146.75L70.65 146.92L70.65 148L64.82 148L64.82 146.92L66.61 146.72ZM71.07 136.82L71.07 135.79L76.20 135.79L76.20 136.82L74.53 137.09L76.35 143.56L76.99 146.35L77.63 143.53L79.74 135.79L81.90 135.79L84.07 143.53L84.71 146.37L85.42 143.56L87.20 137.11L85.53 136.82L85.53 135.79L89.99 135.79L89.99 136.82L88.83 137.11L85.42 148.18L83.35 148.18L81.02 140.41L80.44 137.68L79.98 140.41L77.76 148.18L75.71 148.18L72.19 137.09L71.07 136.82ZM96.09 148.24Q93.42 148.24 92.03 146.50Q90.63 144.77 90.63 141.86L90.63 141.86Q90.63 139.95 91.36 138.50Q92.08 137.04 93.39 136.25Q94.70 135.46 96.37 135.46L96.37 135.46Q98.42 135.46 99.55 136.59Q100.68 137.73 100.75 139.84L100.75 139.84Q100.75 141.18 100.60 141.88L100.60 141.88L93.03 141.88Q93.07 144.06 94.04 145.39Q95.01 146.72 96.79 146.72L96.79 146.72Q97.67 146.72 98.63 146.41Q99.58 146.09 100.11 145.65L100.11 145.65L100.53 146.61Q99.89 147.27 98.64 147.76Q97.38 148.24 96.09 148.24L96.09 148.24ZM93.05 140.72L98.33 140.72Q98.40 140.26 98.40 139.77L98.40 139.77Q98.37 138.34 97.79 137.52Q97.21 136.69 95.95 136.69L95.95 136.69Q94.68 136.69 93.92 137.62Q93.16 138.54 93.05 140.72L93.05 140.72ZM102.64 144.70Q102.64 142.63 104.71 141.65Q106.78 140.67 109.95 140.61L109.95 140.61L109.95 139.99Q109.95 138.96 109.73 138.36Q109.51 137.77 108.97 137.50Q108.43 137.22 107.44 137.22L107.44 137.22Q106.32 137.22 105.42 137.54Q104.53 137.86 103.65 138.32L103.65 138.32L103.10 137.18Q103.39 136.93 104.16 136.54Q104.93 136.14 105.94 135.83Q106.95 135.53 107.97 135.53L107.97 135.53Q109.53 135.53 110.44 135.96Q111.35 136.38 111.75 137.33Q112.15 138.28 112.15 139.86L112.15 139.86L112.15 146.92L113.44 146.92L113.44 147.89Q113.00 148 112.33 148.11Q111.66 148.22 111.16 148.22L111.16 148.22Q110.54 148.22 110.32 148.03Q110.10 147.85 110.10 147.21L110.10 147.21L110.10 146.48Q109.44 147.14 108.48 147.69Q107.53 148.24 106.32 148.24L106.32 148.24Q104.73 148.24 103.69 147.33Q102.64 146.42 102.64 144.70L102.64 144.70ZM107.26 146.75Q107.83 146.75 108.58 146.39Q109.33 146.04 109.95 145.56L109.95 145.56L109.95 141.77Q107.55 141.77 106.33 142.51Q105.11 143.25 105.11 144.44L105.11 144.44Q105.11 145.62 105.69 146.19Q106.27 146.75 107.26 146.75L107.26 146.75ZM118.75 148.22Q117.49 148.22 116.88 147.65Q116.26 147.08 116.26 145.69L116.26 145.69L116.26 137.24L114.68 137.24L114.68 136.25Q114.79 136.23 115.29 136.10Q115.80 135.97 115.97 135.86L115.97 135.86Q116.33 135.66 116.52 135.06L116.52 135.06Q116.70 134.65 116.94 133.72Q117.18 132.80 117.23 132.62L117.23 132.62L118.53 132.62L118.57 135.79L122.24 135.79L122.24 137.24L118.57 137.24L118.57 144.00Q118.57 145.25 118.65 145.76Q118.72 146.26 118.98 146.42Q119.23 146.57 119.85 146.57L119.85 146.57Q120.44 146.57 121.16 146.42Q121.87 146.26 122.27 146.09L122.27 146.09L122.60 147.08Q122.07 147.47 120.89 147.85Q119.71 148.22 118.75 148.22L118.75 148.22ZM125.13 146.75L125.13 131.59L123.28 131.35L123.28 130.40L126.86 129.98L126.91 129.98L127.39 130.31L127.39 135.42L127.30 137.29Q128.01 136.65 129.24 136.08Q130.47 135.50 131.73 135.50L131.73 135.50Q133.11 135.50 133.88 136.03Q134.65 136.56 134.96 137.65Q135.27 138.74 135.27 140.59L135.27 140.59L135.27 146.72L136.81 146.92L136.81 148L131.55 148L131.55 146.92L132.98 146.72L132.98 140.56Q132.98 139.27 132.80 138.53Q132.63 137.79 132.14 137.43Q131.66 137.07 130.69 137.07L130.69 137.07Q129.90 137.07 129.00 137.46Q128.10 137.86 127.41 138.39L127.41 138.39L127.41 146.72L128.93 146.92L128.93 148L123.81 148L123.81 146.92L125.13 146.75ZM143.85 148.24Q141.19 148.24 139.79 146.50Q138.39 144.77 138.39 141.86L138.39 141.86Q138.39 139.95 139.12 138.50Q139.84 137.04 141.15 136.25Q142.46 135.46 144.13 135.46L144.13 135.46Q146.18 135.46 147.31 136.59Q148.45 137.73 148.51 139.84L148.51 139.84Q148.51 141.18 148.36 141.88L148.36 141.88L140.79 141.88Q140.83 144.06 141.80 145.39Q142.77 146.72 144.55 146.72L144.55 146.72Q145.43 146.72 146.39 146.41Q147.35 146.09 147.87 145.65L147.87 145.65L148.29 146.61Q147.65 147.27 146.40 147.76Q145.15 148.24 143.85 148.24L143.85 148.24ZM140.81 140.72L146.09 140.72Q146.16 140.26 146.16 139.77L146.16 139.77Q146.14 138.34 145.55 137.52Q144.97 136.69 143.72 136.69L143.72 136.69Q142.44 136.69 141.68 137.62Q140.92 138.54 140.81 140.72L140.81 140.72ZM150.45 148L150.45 146.92L152.10 146.79L152.10 137.48L150.51 137.09L150.51 135.90L153.55 135.50L153.59 135.50L154.08 135.90L154.08 136.30L154.01 138.01L154.08 138.01Q154.30 137.64 154.87 137.04Q155.44 136.45 156.34 135.96Q157.25 135.46 158.30 135.46L158.30 135.46Q158.74 135.46 159.03 135.57L159.03 135.57L159.03 138.03Q158.87 137.92 158.53 137.82Q158.19 137.73 157.77 137.73L157.77 137.73Q155.95 137.73 154.39 138.85L154.39 138.85L154.39 146.77L157.18 146.94L157.18 148L150.45 148Z"/>
<path d="M14.07 188L12.51 188L12.51 172.60L13.85 172.60L20.89 184.61L20.19 184.61L27.16 172.60L28.50 172.60L28.50 188L26.94 188L26.94 175.04L27.31 175.04L20.89 186.04L20.12 186.04L13.65 175.04L14.07 175.04L14.07 188ZM37.90 188.11L37.90 188.11Q36.22 188.11 34.89 187.35Q33.56 186.59 32.79 185.26Q32.02 183.93 32.02 182.21L32.02 182.21Q32.02 180.48 32.79 179.16Q33.56 177.84 34.88 177.09Q36.20 176.34 37.90 176.34L37.90 176.34Q39.61 176.34 40.94 177.09Q42.27 177.84 43.03 179.16Q43.79 180.48 43.79 182.21L43.79 182.21Q43.79 183.93 43.03 185.26Q42.27 186.59 40.93 187.35Q39.59 188.11 37.90 188.11ZM37.90 186.72L37.90 186.72Q39.15 186.72 40.12 186.16Q41.09 185.60 41.65 184.58Q42.21 183.56 42.21 182.21L42.21 182.21Q42.21 180.85 41.65 179.84Q41.09 178.83 40.12 178.26Q39.15 177.70 37.92 177.70L37.92 177.70Q36.69 177.70 35.72 178.26Q34.75 178.83 34.18 179.84Q33.61 180.85 33.61 182.21L33.61 182.21Q33.61 183.56 34.18 184.58Q34.75 185.60 35.72 186.16Q36.69 186.72 37.90 186.72ZM52.88 176.34L52.88 176.34Q54.29 176.34 55.35 176.88Q56.42 177.42 57.02 178.52Q57.63 179.62 57.63 181.29L57.63 181.29L57.63 188L56.07 188L56.07 181.44Q56.07 179.62 55.15 178.68Q54.24 177.75 52.59 177.75L52.59 177.75Q51.36 177.75 50.45 178.24Q49.53 178.74 49.04 179.67Q48.54 180.61 48.54 181.93L48.54 181.93L48.54 188L46.98 188L46.98 176.45L48.48 176.45L48.48 179.62L48.24 179.02Q48.79 177.77 50.00 177.06Q51.21 176.34 52.88 176.34ZM65.51 188.11L65.51 188.11Q63.88 188.11 63.00 187.23Q62.12 186.35 62.12 184.74L62.12 184.74L62.12 173.90L63.68 173.90L63.68 184.66Q63.68 185.67 64.20 186.22Q64.71 186.77 65.68 186.77L65.68 186.77Q66.72 186.77 67.40 186.17L67.40 186.17L67.95 187.30Q67.49 187.71 66.84 187.91Q66.19 188.11 65.51 188.11ZM67.20 177.75L60.05 177.75L60.05 176.45L67.20 176.45L67.20 177.75ZM73.89 188.11L73.89 188.11Q72.46 188.11 71.18 187.70Q69.91 187.30 69.18 186.68L69.18 186.68L69.88 185.45Q70.59 185.98 71.69 186.36Q72.79 186.75 74.00 186.75L74.00 186.75Q75.65 186.75 76.37 186.23Q77.10 185.71 77.10 184.85L77.10 184.85Q77.10 184.22 76.69 183.85Q76.29 183.49 75.63 183.30Q74.97 183.12 74.15 182.98Q73.34 182.85 72.53 182.68Q71.73 182.50 71.07 182.16Q70.41 181.82 70.00 181.22Q69.60 180.63 69.60 179.64L69.60 179.64Q69.60 178.69 70.13 177.95Q70.65 177.20 71.68 176.77Q72.70 176.34 74.17 176.34L74.17 176.34Q75.30 176.34 76.42 176.64Q77.54 176.93 78.27 177.42L78.27 177.42L77.58 178.67Q76.81 178.14 75.93 177.91Q75.05 177.68 74.17 177.68L74.17 177.68Q72.61 177.68 71.87 178.22Q71.14 178.76 71.14 179.60L71.14 179.60Q71.14 180.26 71.54 180.63Q71.95 181.00 72.62 181.21Q73.29 181.42 74.10 181.55Q74.90 181.69 75.70 181.87Q76.51 182.06 77.18 182.38Q77.85 182.70 78.25 183.28Q78.66 183.86 78.66 184.81L78.66 184.81Q78.66 185.82 78.10 186.56Q77.54 187.30 76.47 187.70Q75.41 188.11 73.89 188.11ZM86.43 188.11L86.43 188.11Q84.62 188.11 83.26 187.35Q81.90 186.59 81.13 185.26Q80.36 183.93 80.36 182.21L80.36 182.21Q80.36 180.50 81.09 179.18Q81.83 177.86 83.12 177.10Q84.40 176.34 86.01 176.34L86.01 176.34Q87.64 176.34 88.90 177.08Q90.17 177.81 90.89 179.15Q91.62 180.48 91.62 182.21L91.62 182.21Q91.62 182.32 91.61 182.44Q91.60 182.57 91.60 182.70L91.60 182.70L81.54 182.70L81.54 181.53L90.76 181.53L90.15 181.99Q90.15 180.74 89.61 179.76Q89.07 178.78 88.14 178.23Q87.22 177.68 86.01 177.68L86.01 177.68Q84.82 177.68 83.88 178.23Q82.93 178.78 82.40 179.77Q81.87 180.76 81.87 182.04L81.87 182.04L81.87 182.28Q81.87 183.60 82.46 184.60Q83.04 185.60 84.08 186.16Q85.13 186.72 86.47 186.72L86.47 186.72Q87.53 186.72 88.44 186.35Q89.35 185.98 90.01 185.21L90.01 185.21L90.89 186.22Q90.12 187.14 88.97 187.63Q87.81 188.11 86.43 188.11ZM96.37 188L94.81 188L94.81 176.45L96.31 176.45L96.31 179.60L96.15 179.05Q96.64 177.73 97.78 177.03Q98.92 176.34 100.62 176.34L100.62 176.34L100.62 177.86Q100.53 177.86 100.44 177.85Q100.35 177.84 100.27 177.84L100.27 177.84Q98.44 177.84 97.41 178.95Q96.37 180.06 96.37 182.10L96.37 182.10L96.37 188ZM105.19 188L103.63 188L103.63 176.45L105.13 176.45L105.13 179.60L104.97 179.05Q105.46 177.73 106.60 177.03Q107.75 176.34 109.44 176.34L109.44 176.34L109.44 177.86Q109.35 177.86 109.26 177.85Q109.18 177.84 109.09 177.84L109.09 177.84Q107.26 177.84 106.23 178.95Q105.19 180.06 105.19 182.10L105.19 182.10L105.19 188ZM121.19 188L119.69 188L119.69 185.45L119.63 185.03L119.63 180.76Q119.63 179.29 118.80 178.50Q117.98 177.70 116.35 177.70L116.35 177.70Q115.23 177.70 114.21 178.08Q113.20 178.45 112.50 179.07L112.50 179.07L111.79 177.90Q112.67 177.15 113.91 176.75Q115.14 176.34 116.50 176.34L116.50 176.34Q118.75 176.34 119.97 177.45Q121.19 178.56 121.19 180.83L121.19 180.83L121.19 188ZM115.71 188.11L115.71 188.11Q114.41 188.11 113.45 187.68Q112.50 187.25 111.99 186.49Q111.49 185.73 111.49 184.74L111.49 184.74Q111.49 183.84 111.91 183.10Q112.34 182.37 113.32 181.92Q114.30 181.47 115.95 181.47L115.95 181.47L119.93 181.47L119.93 182.63L116.00 182.63Q114.32 182.63 113.67 183.23Q113.03 183.82 113.03 184.70L113.03 184.70Q113.03 185.69 113.80 186.28Q114.57 186.88 115.95 186.88L115.95 186.88Q117.27 186.88 118.23 186.27Q119.19 185.67 119.63 184.52L119.63 184.52L119.98 185.60Q119.54 186.75 118.45 187.43Q117.36 188.11 115.71 188.11ZM129.09 188.11L129.09 188.11Q127.46 188.11 126.58 187.23Q125.70 186.35 125.70 184.74L125.70 184.74L125.70 173.90L127.26 173.90L127.26 184.66Q127.26 185.67 127.78 186.22Q128.29 186.77 129.26 186.77L129.26 186.77Q130.30 186.77 130.98 186.17L130.98 186.17L131.53 187.30Q131.07 187.71 130.42 187.91Q129.77 188.11 129.09 188.11ZM130.78 177.75L123.63 177.75L123.63 176.45L130.78 176.45L130.78 177.75Z"/>
<path d="M11.41 228L12.57 214.14L15.21 214.14L18.12 222.98Q18.34 223.62 18.54 224.23Q18.73 224.83 18.91 225.45L18.91 225.45L18.95 225.45Q19.13 224.83 19.32 224.26Q19.50 223.69 19.75 222.98L19.75 222.98L22.58 214.14L25.22 214.14L26.43 228L24.41 228L23.84 220.65Q23.75 219.57 23.71 218.51Q23.66 217.44 23.62 216.34L23.62 216.34L23.57 216.34Q23.27 217.42 22.95 218.50Q22.63 219.57 22.28 220.65L22.28 220.65L19.83 228L17.99 228L15.54 220.63Q15.17 219.51 14.86 218.49Q14.55 217.46 14.25 216.34L14.25 216.34L14.20 216.34Q14.16 217.42 14.08 218.50Q14.00 219.57 13.92 220.65L13.92 220.65L13.39 228L11.41 228ZM36.27 225.25L36.27 217.66L38.20 217.66L38.20 228L36.69 228L36.42 226.70L36.33 226.70Q35.76 227.34 34.91 227.77Q34.07 228.20 32.95 228.20L32.95 228.20Q31.34 228.20 30.34 227.28Q29.34 226.37 29.34 224.52L29.34 224.52L29.34 217.66L31.27 217.66L31.27 224.28Q31.27 224.94 31.44 225.40Q31.60 225.87 31.88 226.14Q32.15 226.42 32.53 226.54Q32.90 226.66 33.34 226.66L33.34 226.66Q34.22 226.66 34.93 226.28Q35.63 225.91 36.27 225.25L36.27 225.25ZM44.17 223.18L43.13 224.22L43.13 228L41.22 228L41.22 212.38L43.13 212.38L43.13 222.10L47.29 217.66L49.69 217.66L45.44 222.02L49.89 228L47.60 228L44.17 223.18ZM56.90 217.66L56.90 219.11L53.87 219.11L53.87 225.12Q53.87 225.89 54.25 226.15Q54.64 226.42 55.25 226.42L55.25 226.42Q55.69 226.42 56.22 226.32Q56.75 226.22 57.15 226.09L57.15 226.09L57.45 227.56Q57.01 227.74 56.33 227.87Q55.65 228 54.90 228L54.90 228Q53.36 228 52.66 227.33Q51.95 226.66 51.95 225.38L51.95 225.38L51.95 219.11L50.41 219.11L50.41 217.66L51.95 217.66L51.95 214.36L53.87 214.36L53.87 217.66L56.90 217.66ZM60.34 219.99L59.59 218.58Q60.12 218.32 60.58 218.11Q61.04 217.90 61.50 217.77Q61.96 217.64 62.45 217.57Q62.93 217.51 63.50 217.51L63.50 217.51Q64.36 217.51 65.08 217.69Q65.79 217.88 66.31 218.32Q66.83 218.76 67.11 219.47Q67.40 220.19 67.40 221.27L67.40 221.27L67.40 228L65.79 228L65.55 226.86L65.51 226.86Q64.82 227.58 64.01 227.89Q63.20 228.20 62.21 228.20L62.21 228.20Q61.46 228.20 60.83 227.99Q60.20 227.78 59.74 227.40Q59.28 227.01 59.03 226.46Q58.77 225.91 58.77 225.23L58.77 225.23Q58.77 223.60 60.06 222.75Q61.35 221.91 63.46 221.91L63.46 221.91L65.44 221.91L65.44 221.03Q65.44 219.90 64.87 219.50Q64.30 219.09 63.33 219.09L63.33 219.09Q62.76 219.09 62.02 219.28Q61.28 219.46 60.34 219.99L60.34 219.99ZM65.46 225.34L65.46 223.23L63.83 223.27Q62.18 223.31 61.49 223.85Q60.80 224.39 60.80 225.16L60.80 225.16Q60.80 225.62 60.95 225.94Q61.11 226.26 61.36 226.44Q61.61 226.61 61.95 226.69Q62.29 226.77 62.67 226.77L62.67 226.77Q63.39 226.77 64.14 226.43Q64.89 226.09 65.46 225.34L65.46 225.34Z"/>
<path d="M10.54 255.45L12.49 256.00L12.49 266.70L10.70 267.21L10.61 268L15.71 268L15.83 267.14L13.87 266.78L13.87 257.68L20.99 268.32L22.63 267.99L22.63 255.86L24.43 255.45L24.57 254.64L19.46 254.64L19.33 255.45L21.32 255.90L21.32 265.06L14.42 254.64L10.66 254.64L10.54 255.45ZM28.97 268.32Q30.02 268.32 30.94 267.94Q31.86 267.56 32.50 266.88L32.50 266.88L32.28 266.31Q31.75 266.59 31.36 266.72Q30.96 266.85 30.66 266.88Q30.36 266.90 29.84 266.90L29.84 266.90Q28.90 266.90 28.23 266.36Q27.57 265.82 27.23 264.97Q26.89 264.12 26.84 263.22L26.84 263.22L32.04 263.16Q32.11 262.88 32.16 262.44Q32.21 262.01 32.21 261.76L32.21 261.76Q32.21 260.66 31.83 259.90Q31.45 259.13 30.80 258.73Q30.14 258.34 29.35 258.34L29.35 258.34Q28.27 258.34 27.25 258.96Q26.23 259.57 25.58 260.72Q24.93 261.87 24.93 263.40L24.93 263.40Q24.93 264.96 25.50 266.08Q26.07 267.19 27.00 267.76Q27.93 268.32 28.97 268.32L28.97 268.32ZM28.82 259.40Q30.30 259.40 30.30 261.39L30.30 261.39Q30.30 261.55 30.29 261.79Q30.27 262.02 30.24 262.13L30.24 262.13L26.87 262.38Q26.92 261.39 27.21 260.72Q27.51 260.05 27.94 259.72Q28.37 259.40 28.82 259.40L28.82 259.40ZM34.66 260.18L34.66 265.13Q34.66 266.78 35.30 267.51Q35.94 268.25 37.06 268.25L37.06 268.25Q38.99 268.25 40.13 266.59L40.13 266.59L40.27 266.59L40.27 266.69Q40.27 267.39 40.67 267.82Q41.08 268.25 41.85 268.25L41.85 268.25Q42.32 268.25 42.65 268.20Q42.97 268.16 43.47 268.04L43.47 268.04L43.57 267.15L43.08 267.04Q42.63 266.95 42.41 266.84Q42.18 266.73 42.05 266.47Q41.92 266.21 41.92 265.69L41.92 265.69L41.92 258.77L41.69 258.51L38.53 258.80L38.42 259.79L40.13 260.24L40.13 265.95Q39.75 266.35 39.28 266.56Q38.81 266.78 38.13 266.78L38.13 266.78Q36.48 266.78 36.48 264.59L36.48 264.59L36.48 258.77L36.21 258.51L33.33 258.74L33.18 259.59L34.66 260.18ZM45.41 259.80L45.36 265.21Q45.35 266.88 45.96 267.56Q46.57 268.25 47.65 268.25L47.65 268.25Q48.55 268.25 49.31 267.83Q50.06 267.41 50.56 266.67L50.56 266.67L50.34 266.09Q50.34 266.10 50.08 266.26Q49.83 266.42 49.49 266.56Q49.14 266.69 48.79 266.69L48.79 266.69Q48.22 266.69 47.88 266.50Q47.53 266.30 47.37 265.84Q47.21 265.38 47.21 264.57L47.21 264.57L47.24 259.83L50.21 259.83L50.30 258.88L47.26 258.88L47.26 256.32L46.70 256.32Q46.12 257.12 45.41 257.90Q44.70 258.69 44.04 259.22L44.04 259.22L44.04 259.80L45.41 259.80ZM55.69 268.29Q56.93 268.29 57.96 267.66Q59.00 267.02 59.59 265.87Q60.19 264.72 60.19 263.26L60.19 263.26Q60.19 261.79 59.68 260.67Q59.17 259.55 58.21 258.92Q57.24 258.30 55.94 258.30L55.94 258.30Q54.72 258.30 53.65 258.91Q52.58 259.52 51.93 260.69Q51.27 261.86 51.27 263.42L51.27 263.42Q51.27 264.82 51.79 265.92Q52.31 267.02 53.31 267.66Q54.30 268.29 55.69 268.29L55.69 268.29ZM55.49 259.43Q56.45 259.43 57.08 260.13Q57.71 260.83 57.99 261.91Q58.28 262.98 58.28 264.14L58.28 264.14Q58.28 264.94 58.03 265.65Q57.78 266.36 57.28 266.80Q56.77 267.25 56.05 267.25L56.05 267.25Q55.05 267.25 54.41 266.59Q53.76 265.94 53.47 264.90Q53.18 263.85 53.18 262.66L53.18 262.66Q53.18 261.78 53.43 261.04Q53.68 260.31 54.20 259.87Q54.72 259.43 55.49 259.43L55.49 259.43ZM66.13 268L66.28 267.15L64.68 266.78L64.68 260.75Q65.08 260.31 65.63 260.07Q66.19 259.83 66.79 259.83L66.79 259.83Q67.64 259.83 68.15 260.31Q68.66 260.80 68.66 261.80L68.66 261.80L68.66 266.78L67.18 267.22L67.07 268L71.90 268L72.00 267.15L70.46 266.78L70.46 261.38Q70.46 259.93 69.79 259.14Q69.13 258.34 67.87 258.34L67.87 258.34Q66.92 258.34 66.08 258.83Q65.25 259.31 64.63 260.04L64.63 260.04L64.53 260.04L64.71 258.67L64.53 258.46L61.33 258.88L61.22 259.70L62.87 260.25L62.87 266.78L61.25 267.22L61.14 268L66.13 268Z"/>
<path d="M21.04 304.48L21.48 305.14Q21.37 302.96 21.32 300.96Q21.26 298.96 21.23 297.42Q21.20 295.88 21.19 294.95Q21.18 294.03 21.18 294.01L21.18 294.01Q21.07 292.67 19.79 292.16L19.79 292.16Q20.01 292.18 20.22 292.18Q20.43 292.18 20.65 292.18L20.65 292.18Q21.64 292.18 22.46 292.08Q23.29 291.98 23.97 291.87Q24.65 291.76 25.21 291.67Q25.77 291.57 26.26 291.57L26.26 291.57Q26.52 291.57 26.76 291.63L26.76 291.63Q25.44 292.58 24.73 293.69Q24.01 294.80 24.01 296.19L24.01 296.19Q24.01 297.81 25.09 299.88L25.09 299.88Q24.59 301.16 24.27 302.63Q23.95 304.11 23.95 305.58L23.95 305.58Q23.95 306.22 24.00 307.04Q24.06 307.87 24.21 308.66L24.21 308.66Q24.87 309.36 25.39 309.76Q25.91 310.16 26.32 310.35Q26.74 310.55 27.11 310.62Q27.47 310.68 27.82 310.73L27.82 310.73L27.25 309.28Q28.00 309.69 28.74 310.07Q29.49 310.44 30.28 310.73Q31.08 311.01 31.95 311.18Q32.81 311.34 33.80 311.34L33.80 311.34Q34.46 311.34 35.18 311.30Q35.89 311.26 36.69 311.15L36.69 311.15Q34.75 311.92 33.05 312.26Q31.34 312.60 29.82 312.60L29.82 312.60Q27.89 312.60 26.25 312.05Q24.61 311.50 23.21 310.56Q21.81 309.63 20.66 308.41Q19.50 307.19 18.55 305.83Q17.59 304.48 16.83 303.09Q16.07 301.71 15.48 300.45L15.48 300.45L15.48 302.70Q15.48 304.06 15.57 304.99Q15.65 305.91 15.85 306.59Q16.05 307.27 16.36 307.79Q16.67 308.31 17.11 308.84L17.11 308.84Q16.62 308.70 16.26 308.57Q15.90 308.44 15.55 308.26Q15.21 308.09 14.85 307.82Q14.49 307.56 14.00 307.16L14.00 307.16Q13.41 308.22 12.42 308.99Q11.43 309.76 9.76 310.31L9.76 310.31Q10.42 309.67 10.99 308.87Q11.56 308.07 11.99 307.15Q12.42 306.24 12.67 305.27Q12.93 304.30 12.93 303.31L12.93 303.31Q12.93 302.39 12.70 301.53Q12.46 300.67 11.94 299.88L11.94 299.88Q13.01 297.81 13.01 296.19L13.01 296.19Q13.01 294.80 12.30 293.69Q11.58 292.58 10.26 291.63L10.26 291.63Q10.48 291.57 10.77 291.57L10.77 291.57Q11.21 291.57 11.77 291.67Q12.33 291.76 13.00 291.87Q13.67 291.98 14.46 292.08Q15.24 292.18 16.14 292.18L16.14 292.18Q16.36 292.18 16.57 292.18Q16.78 292.18 17.00 292.16L17.00 292.16Q15.81 292.62 15.63 293.79L15.63 293.79Q16.03 294.78 16.59 296.08Q17.15 297.37 17.84 298.80Q18.54 300.23 19.35 301.70Q20.16 303.16 21.04 304.48L21.04 304.48ZM31.54 308.70L31.54 308.70Q31.12 308.40 30.50 308.13Q29.89 307.87 29.24 307.68Q28.59 307.49 27.98 307.38Q27.38 307.27 26.98 307.27L26.98 307.27Q27.16 306.99 27.29 306.47Q27.42 305.95 27.50 305.35Q27.58 304.74 27.61 304.11Q27.64 303.47 27.64 302.94L27.64 302.94Q27.64 301.60 27.48 300.71Q27.31 299.82 27.16 299.31L27.16 299.31Q28.11 299.13 28.89 298.63Q29.67 298.12 30.44 297.35L30.44 297.35Q31.34 297.53 32.66 297.65Q33.98 297.77 35.28 297.81L35.28 297.81Q35.21 298.21 35.21 298.80L35.21 298.80Q35.21 299.27 35.26 299.81Q35.30 300.34 35.37 300.87Q35.43 301.40 35.54 301.88Q35.65 302.37 35.78 302.72L35.78 302.72Q34.44 302.83 33.06 303.02Q31.67 303.20 30.35 303.42L30.35 303.42Q30.33 304.06 30.26 304.68Q30.20 305.29 30.15 305.76L30.15 305.76Q30.42 305.87 30.82 305.95Q31.23 306.04 31.69 306.12Q32.15 306.20 32.59 306.25Q33.03 306.31 33.34 306.33L33.34 306.33Q33.45 305.65 33.88 305.16Q34.31 304.68 35.34 304.37L35.34 304.37Q35.32 304.63 35.32 304.89Q35.32 305.14 35.32 305.38L35.32 305.38Q35.32 306.13 35.38 306.56Q35.43 306.99 35.59 307.41L35.59 307.41Q35.17 307.45 34.60 307.57Q34.02 307.69 33.45 307.88Q32.88 308.07 32.36 308.27Q31.85 308.48 31.54 308.70ZM30.13 299.33L30.13 299.33Q30.24 300.26 30.30 300.96Q30.35 301.66 30.37 302.26L30.37 302.26L32.95 301.62Q32.84 301.18 32.76 300.70Q32.68 300.21 32.68 299.71L32.68 299.71Q32.18 299.71 31.46 299.61Q30.75 299.51 30.13 299.33ZM47.49 308.62L47.27 308.62Q46.85 308.35 46.48 308.12Q46.10 307.89 45.73 307.68Q45.35 307.47 44.95 307.24Q44.54 307.01 44.08 306.75L44.08 306.75L43.92 306.75L42.05 308.62L41.83 308.62Q41.20 308.18 40.18 307.76Q39.17 307.34 38.18 307.08L38.18 307.08Q38.23 306.86 38.27 306.36Q38.31 305.87 38.31 304.88L38.31 304.88Q38.31 302.81 38.07 301.38Q37.83 299.95 37.30 299.02L37.30 299.02L36.66 298.89L36.66 298.52Q37.13 298.45 37.68 298.32Q38.23 298.19 38.72 298.03Q39.22 297.88 39.61 297.70Q40.01 297.53 40.21 297.35L40.21 297.35Q40.54 297.81 40.78 299.50Q41.02 301.18 41.13 304.02L41.13 304.02L41.20 305.93L42.32 306.53L42.45 306.53L43.37 305.58Q43.44 305.23 43.46 304.87Q43.48 304.50 43.48 303.73L43.48 303.73Q43.48 301.88 43.38 300.78Q43.29 299.68 43.07 299.02L43.07 299.02L42.43 298.89L42.43 298.52Q42.89 298.45 43.44 298.32Q43.99 298.19 44.48 298.03Q44.98 297.88 45.38 297.70Q45.77 297.53 45.97 297.35L45.97 297.35Q46.15 298.03 46.21 299.01Q46.28 299.99 46.28 301.44L46.28 301.44Q46.28 302.06 46.27 302.73Q46.26 303.40 46.23 304.00Q46.21 304.59 46.19 305.05Q46.17 305.51 46.15 305.71L46.15 305.71L47.42 306.70L47.55 306.70Q47.77 306.28 47.99 305.56Q48.21 304.83 48.38 303.96Q48.54 303.09 48.65 302.17Q48.76 301.25 48.76 300.43L48.76 300.43Q48.76 299.51 48.60 299.05Q48.43 298.58 48.02 298.36L48.02 298.36L48.04 298.01Q49.89 297.88 51.51 297.35L51.51 297.35Q51.47 297.42 51.47 297.59L51.47 297.59Q51.47 298.47 51.56 299.08Q51.65 299.68 51.95 299.99L51.95 299.99L50.02 306.53L47.49 308.62ZM71.82 307.14L71.82 307.14Q70.90 307.80 70.38 308.74Q69.86 309.67 69.55 310.60L69.55 310.60Q69.44 310.16 69.23 309.65Q69.03 309.14 68.72 308.67Q68.41 308.20 68.00 307.79Q67.60 307.38 67.11 307.14L67.11 307.14Q67.31 306.94 67.41 306.63Q67.51 306.31 67.56 305.72Q67.62 305.14 67.64 304.24Q67.66 303.34 67.71 301.97L67.71 301.97Q67.62 301.93 67.12 301.55Q66.63 301.18 66.06 300.72L66.06 300.72Q65.29 301.18 64.55 301.62Q63.81 302.06 63.20 302.43L63.20 302.43Q63.28 304.08 63.45 305.55Q63.61 307.01 63.90 308.22L63.90 308.22Q63.33 307.93 62.88 307.82Q62.43 307.71 62.01 307.71L62.01 307.71Q61.63 307.71 61.27 307.78Q60.91 307.85 60.52 307.92Q60.14 308 59.72 308.07Q59.30 308.13 58.80 308.13L58.80 308.13Q58.69 308.13 58.55 308.13Q58.42 308.13 58.31 308.11L58.31 308.11Q58.77 307.82 59.17 307.35Q59.57 306.88 59.85 306.31Q60.14 305.73 60.30 305.10Q60.47 304.46 60.47 303.84L60.47 303.84Q60.47 302.72 60.20 301.65Q59.94 300.59 59.37 299.88L59.37 299.88Q59.98 298.74 60.20 297.71Q60.42 296.69 60.42 295.68L60.42 295.68Q60.42 295.09 60.36 294.38L60.36 294.38Q59.43 294.25 58.94 293.69Q58.44 293.13 58.44 291.94L58.44 291.94Q59.37 292.14 59.96 292.21Q60.56 292.29 61.17 292.29L61.17 292.29Q61.52 292.29 61.94 292.26Q62.36 292.23 62.83 292.09Q63.31 291.96 63.86 291.69Q64.41 291.41 65.02 290.93L65.02 290.93Q65.26 291.13 65.99 291.43Q66.72 291.74 67.68 292.03Q68.65 292.31 69.74 292.51Q70.83 292.71 71.80 292.71L71.80 292.71Q72.11 292.71 72.39 292.69Q72.68 292.67 72.99 292.62L72.99 292.62Q72.74 293.13 72.04 293.67Q71.34 294.21 70.48 294.54L70.48 294.54Q70.41 294.84 70.41 295.20L70.41 295.20Q70.41 295.55 70.44 295.94Q70.48 296.34 70.53 296.74Q70.59 297.13 70.68 297.48Q70.76 297.84 70.87 298.08L70.87 298.08Q70.65 298.14 70.11 298.42Q69.58 298.69 68.83 299.13L68.83 299.13Q69.33 299.60 69.93 300.10Q70.52 300.61 71.14 300.98L71.14 300.98Q71.03 301.22 70.97 301.82Q70.92 302.41 70.92 303.18L70.92 303.18Q70.92 303.75 70.96 304.34Q71.01 304.92 71.12 305.46Q71.23 306.00 71.39 306.44Q71.56 306.88 71.82 307.14ZM67.44 297.09L67.33 294.38Q66.14 294.21 65.13 294.07Q64.12 293.94 63.13 293.70L63.13 293.70Q63.09 294.25 63.09 294.89Q63.09 295.53 63.09 296.19L63.09 296.19L63.09 297.90L63.09 299.64Q63.79 299.22 64.54 298.79Q65.29 298.36 65.92 298.00Q66.56 297.64 66.98 297.38Q67.40 297.13 67.44 297.09L67.44 297.09ZM77.65 297.35L77.65 297.35Q79.17 297.86 80.18 298.03Q81.19 298.21 82.05 298.21L82.05 298.21Q82.53 298.21 82.79 298.20Q83.04 298.19 83.28 298.14L83.28 298.14Q83.02 299.57 83.02 301.51L83.02 301.51Q83.02 303.89 83.41 306.13L83.41 306.13Q82.86 306.20 82.25 306.42Q81.63 306.64 81.02 306.97Q80.40 307.30 79.83 307.73Q79.26 308.15 78.79 308.62L78.79 308.62Q78.55 308.42 77.96 308.21Q77.36 308 76.66 307.82Q75.96 307.65 75.25 307.54Q74.55 307.43 74.09 307.43L74.09 307.43Q73.95 307.43 73.83 307.44Q73.71 307.45 73.60 307.47L73.60 307.47Q73.91 307.21 74.05 306.43Q74.20 305.65 74.20 304.39L74.20 304.39Q74.20 303.75 74.15 303.00Q74.11 302.24 74.03 301.55Q73.95 300.87 73.87 300.39Q73.78 299.90 73.69 299.79L73.69 299.79Q74.55 299.64 75.60 298.99Q76.66 298.34 77.65 297.35ZM80.25 306.37L80.29 300.15Q79.28 300.06 78.31 299.85Q77.34 299.64 76.84 299.38L76.84 299.38Q76.95 300.30 76.99 301.10Q77.03 301.91 77.03 302.72L77.03 302.72Q77.03 303.36 77.00 304.16Q76.97 304.96 76.92 305.73L76.92 305.73Q77.67 305.82 78.57 305.98Q79.48 306.13 80.25 306.37L80.25 306.37ZM90.50 308.68L90.50 308.68Q90.10 308.44 89.42 308.19Q88.74 307.93 87.94 307.74Q87.13 307.54 86.32 307.41Q85.50 307.27 84.84 307.27L84.84 307.27Q85.00 307.05 85.12 306.61Q85.24 306.17 85.33 305.59Q85.42 305.01 85.46 304.33Q85.50 303.64 85.50 302.92L85.50 302.92Q85.50 301.73 85.38 300.69Q85.26 299.64 85.02 298.87L85.02 298.87Q86.21 298.67 87.46 298.26Q88.72 297.86 89.79 297.35L89.79 297.35Q90.52 297.81 91.49 298.17Q92.46 298.52 93.45 298.69L93.45 298.69Q93.03 299.53 92.29 300.05Q91.55 300.56 90.78 300.56L90.78 300.56Q90.28 300.56 89.57 300.21Q88.87 299.86 88.19 299.22L88.19 299.22Q88.30 300.06 88.35 300.88Q88.41 301.71 88.41 302.54L88.41 302.54Q88.41 303.27 88.35 304.14Q88.30 305.01 88.19 305.69L88.19 305.69Q88.67 305.89 89.43 306.06Q90.19 306.24 90.81 306.28L90.81 306.28Q90.94 305.45 91.50 304.82Q92.06 304.19 92.98 303.93L92.98 303.93Q92.96 304.11 92.96 304.41Q92.96 304.72 92.96 305.16L92.96 305.16Q92.96 306.00 93.04 306.50Q93.12 307.01 93.23 307.38L93.23 307.38Q92.87 307.45 92.47 307.59Q92.06 307.74 91.67 307.92Q91.29 308.11 90.97 308.31Q90.65 308.51 90.50 308.68ZM100.86 309.78L100.68 309.72Q100.79 309.43 100.89 309.01Q100.99 308.59 101.06 308.13Q101.12 307.67 101.17 307.19Q101.21 306.70 101.21 306.28L101.21 306.28L101.21 304.46Q100.55 304.00 99.87 303.63Q99.19 303.27 98.42 302.96L98.42 302.96L98.42 306.06Q98.42 307.45 99.01 307.67L99.01 307.67L99.01 308L94.96 308L94.96 307.67Q95.56 307.45 95.56 306.26L95.56 306.26L95.56 294.69Q95.56 294.10 95.52 293.63Q95.49 293.17 95.41 292.80Q95.34 292.42 95.22 292.09Q95.10 291.76 94.90 291.43L94.90 291.43Q95.29 291.59 95.93 291.59L95.93 291.59Q96.61 291.59 97.41 291.37Q98.20 291.15 99.19 290.66L99.19 290.66Q98.79 291.15 98.60 291.96Q98.42 292.78 98.42 294.10L98.42 294.10L98.42 298.67Q98.88 298.36 99.34 297.97Q99.80 297.57 100.38 297L100.38 297Q101.04 297.44 101.88 297.74Q102.73 298.03 103.92 298.28L103.92 298.28Q103.72 298.91 103.72 299.82L103.72 299.82Q103.72 300.06 103.74 300.43Q103.76 300.81 103.81 300.98L103.81 300.98L100.55 302.21L100.55 302.30Q101.74 302.54 102.61 302.90Q103.48 303.25 104.23 303.69L104.23 303.69Q104.14 304.15 104.10 304.61Q104.07 305.07 104.07 305.69L104.07 305.69Q104.07 306.94 104.23 307.65L104.23 307.65Q103.79 307.85 103.30 308.11Q102.82 308.37 102.36 308.66Q101.89 308.95 101.51 309.23Q101.12 309.52 100.86 309.78L100.86 309.78ZM98.42 299.29L98.42 302.04L101.78 300.67L101.74 299.95L98.42 299.29ZM110.25 308.70L110.25 308.70Q109.84 308.40 109.22 308.13Q108.60 307.87 107.95 307.68Q107.31 307.49 106.70 307.38Q106.10 307.27 105.70 307.27L105.70 307.27Q105.88 306.99 106.01 306.47Q106.14 305.95 106.22 305.35Q106.29 304.74 106.33 304.11Q106.36 303.47 106.36 302.94L106.36 302.94Q106.36 301.60 106.19 300.71Q106.03 299.82 105.88 299.31L105.88 299.31Q106.82 299.13 107.60 298.63Q108.38 298.12 109.15 297.35L109.15 297.35Q110.06 297.53 111.38 297.65Q112.70 297.77 113.99 297.81L113.99 297.81Q113.93 298.21 113.93 298.80L113.93 298.80Q113.93 299.27 113.97 299.81Q114.02 300.34 114.08 300.87Q114.15 301.40 114.26 301.88Q114.37 302.37 114.50 302.72L114.50 302.72Q113.16 302.83 111.77 303.02Q110.39 303.20 109.07 303.42L109.07 303.42Q109.04 304.06 108.98 304.68Q108.91 305.29 108.87 305.76L108.87 305.76Q109.13 305.87 109.54 305.95Q109.95 306.04 110.41 306.12Q110.87 306.20 111.31 306.25Q111.75 306.31 112.06 306.33L112.06 306.33Q112.17 305.65 112.60 305.16Q113.03 304.68 114.06 304.37L114.06 304.37Q114.04 304.63 114.04 304.89Q114.04 305.14 114.04 305.38L114.04 305.38Q114.04 306.13 114.09 306.56Q114.15 306.99 114.30 307.41L114.30 307.41Q113.88 307.45 113.31 307.57Q112.74 307.69 112.17 307.88Q111.60 308.07 111.08 308.27Q110.56 308.48 110.25 308.70ZM108.85 299.33L108.85 299.33Q108.96 300.26 109.01 300.96Q109.07 301.66 109.09 302.26L109.09 302.26L111.66 301.62Q111.55 301.18 111.47 300.70Q111.40 300.21 111.40 299.71L111.40 299.71Q110.89 299.71 110.18 299.61Q109.46 299.51 108.85 299.33ZM119.60 297.99L119.60 300.94Q120.11 300.12 120.55 299.22Q120.99 298.32 121.36 297.31L121.36 297.31Q121.78 297.57 122.55 297.85Q123.32 298.12 124.25 298.34L124.25 298.34Q124.14 299.27 123.85 300.02Q123.56 300.78 123.12 301.29L123.12 301.29L121.65 300.52L121.39 300.52L119.60 303.03L119.60 306.06Q119.60 306.83 119.88 307.18Q120.15 307.52 120.86 307.63L120.86 307.63L120.86 308L116.15 308L116.15 307.67Q116.74 307.45 116.74 306.26L116.74 306.26L116.74 298.58L115.93 298.23L115.93 297.99Q116.70 297.88 117.60 297.69Q118.50 297.51 119.21 297.33L119.21 297.33L119.60 297.99Z"/>
<path d="M11.01 347.45L12.80 346.89L12.80 334.38L10.97 333.68L10.97 333.13L14.74 333.13L23.71 345.56L23.14 346.46L23.14 334.24L21.20 333.68L21.20 333.13L26.13 333.13L26.13 333.68L24.33 334.24L24.33 348.18L23.41 348.18L13.62 334.68L13.99 334.35L13.99 346.89L15.94 347.45L15.94 348L11.01 348L11.01 347.45ZM32.38 338.09L32.38 338.09Q33.57 338.09 34.40 338.61Q35.23 339.12 35.70 340.11Q36.17 341.09 36.27 342.51L36.27 342.51L29.24 342.51L29.25 341.64L35.11 341.42L34.39 341.85Q34.32 340.98 34.07 340.36Q33.81 339.74 33.36 339.40Q32.91 339.07 32.24 339.07L32.24 339.07Q31.43 339.07 30.82 339.49Q30.22 339.92 29.89 340.73Q29.56 341.55 29.56 342.76L29.56 342.76Q29.56 344.04 30.03 344.94Q30.50 345.84 31.38 346.32Q32.26 346.80 33.46 346.80L33.46 346.80Q33.94 346.80 34.38 346.69Q34.82 346.57 35.24 346.36Q35.67 346.14 36.07 345.84L36.07 345.84L36.29 346.28Q35.72 346.93 35.10 347.37Q34.49 347.80 33.83 348.01Q33.17 348.22 32.44 348.22L32.44 348.22Q31.09 348.22 30.05 347.59Q29.01 346.97 28.42 345.86Q27.83 344.74 27.83 343.29L27.83 343.29Q27.83 341.83 28.38 340.65Q28.93 339.48 29.95 338.78Q30.98 338.09 32.38 338.09ZM48.91 346.21L50.92 339.29L49.45 338.87L49.45 338.31L53.14 338.31L53.14 338.87L51.93 339.28L49.15 348.22L48.36 348.22L45.08 340.10L45.56 340.09L42.27 348.22L41.48 348.22L38.62 339.40L37.20 338.87L37.20 338.31L41.88 338.31L41.88 338.87L40.39 339.34L42.60 346.26L42.13 346.26L45.40 338.09L46.06 338.09L49.35 346.21L48.91 346.21ZM58.02 338.09L58.02 338.09Q58.66 338.09 59.22 338.21Q59.78 338.33 60.47 338.65L60.47 338.65L60.67 341.30L60.02 341.30L58.91 338.62L59.82 339.58Q59.35 339.28 58.91 339.12Q58.48 338.97 58.00 338.97L58.00 338.97Q57.08 338.97 56.57 339.33Q56.06 339.69 56.06 340.36L56.06 340.36Q56.06 340.94 56.38 341.28Q56.71 341.62 57.23 341.85Q57.76 342.08 58.38 342.31L58.38 342.31Q58.84 342.48 59.29 342.70Q59.74 342.93 60.12 343.26Q60.49 343.59 60.72 344.07Q60.94 344.56 60.94 345.27L60.94 345.27Q60.94 346.22 60.47 346.88Q60.00 347.54 59.16 347.87Q58.32 348.21 57.21 348.21L57.21 348.21Q56.53 348.21 55.94 348.11Q55.34 348.01 54.81 347.79L54.81 347.79L54.33 345.05L55.02 345.05L56.46 347.85L55.12 346.94Q55.54 347.13 55.85 347.22Q56.16 347.32 56.43 347.35Q56.70 347.37 56.97 347.37L56.97 347.37Q58.13 347.37 58.77 346.95Q59.41 346.53 59.41 345.69L59.41 345.69Q59.41 345.19 59.18 344.88Q58.94 344.56 58.54 344.34Q58.14 344.13 57.67 343.96Q57.20 343.79 56.76 343.61L56.76 343.61Q56.17 343.35 55.68 343.02Q55.19 342.69 54.90 342.15Q54.61 341.61 54.61 340.77L54.61 340.77Q54.61 339.93 55.05 339.33Q55.48 338.73 56.26 338.41Q57.03 338.09 58.02 338.09ZM69.20 338.15L69.20 338.15Q69.75 338.15 70.02 338.43Q70.29 338.70 70.29 339.16L70.29 339.16Q70.29 339.68 69.99 340.00Q69.70 340.31 69.19 340.31L69.19 340.31Q68.91 340.31 68.61 340.23Q68.32 340.15 68.01 340.07Q67.71 339.99 67.35 339.99L67.35 339.99Q67.10 339.99 66.80 340.06Q66.51 340.12 66.21 340.25Q65.91 340.38 65.68 340.55L65.68 340.55L65.42 340.17Q66.12 339.63 66.68 339.25Q67.24 338.87 67.71 338.63Q68.17 338.39 68.54 338.27Q68.91 338.15 69.20 338.15ZM65.74 338.08L65.94 340.16L65.94 346.97L67.70 347.48L67.70 348L62.53 348L62.53 347.48L64.23 346.97L64.23 340.41Q64.09 340.27 63.85 340.13Q63.60 340.00 63.27 339.85Q62.94 339.71 62.54 339.55L62.54 339.55L62.54 339.24L65.47 338.08L65.74 338.08ZM76 338.09L76 338.09Q77.19 338.09 78.02 338.61Q78.85 339.12 79.32 340.11Q79.78 341.09 79.88 342.51L79.88 342.51L72.85 342.51L72.87 341.64L78.73 341.42L78.00 341.85Q77.94 340.98 77.68 340.36Q77.43 339.74 76.98 339.40Q76.53 339.07 75.86 339.07L75.86 339.07Q75.04 339.07 74.44 339.49Q73.83 339.92 73.50 340.73Q73.17 341.55 73.17 342.76L73.17 342.76Q73.17 344.04 73.65 344.94Q74.12 345.84 75.00 346.32Q75.88 346.80 77.08 346.80L77.08 346.80Q77.55 346.80 77.99 346.69Q78.43 346.57 78.86 346.36Q79.29 346.14 79.69 345.84L79.69 345.84L79.91 346.28Q79.33 346.93 78.72 347.37Q78.10 347.80 77.44 348.01Q76.78 348.22 76.06 348.22L76.06 348.22Q74.70 348.22 73.66 347.59Q72.62 346.97 72.03 345.86Q71.45 344.74 71.45 343.29L71.45 343.29Q71.45 341.83 72.00 340.65Q72.55 339.48 73.57 338.78Q74.59 338.09 76 338.09ZM87.89 341.81L87.89 341.81L87.95 342.70Q86.56 342.98 85.68 343.28Q84.80 343.58 84.32 343.89Q83.84 344.20 83.66 344.57Q83.48 344.93 83.48 345.37L83.48 345.37Q83.48 346.12 83.93 346.52Q84.38 346.92 85.09 346.92L85.09 346.92Q85.65 346.92 86.10 346.66Q86.56 346.39 86.83 345.96Q87.11 345.52 87.11 345.02L87.11 345.02L87.11 341.06Q87.11 340.19 86.68 339.70Q86.25 339.21 85.24 339.21L85.24 339.21Q84.85 339.21 84.40 339.30Q83.94 339.40 83.52 339.60L83.52 339.60L84.13 339.04Q84.08 339.38 84.02 339.69Q83.95 340.00 83.87 340.25Q83.79 340.50 83.66 340.65L83.66 340.65Q83.48 340.88 83.21 340.98Q82.94 341.07 82.64 341.07L82.64 341.07Q82.25 341.07 82.03 340.89Q81.81 340.72 81.81 340.45L81.81 340.45Q81.81 340.10 82.15 339.71Q82.49 339.32 83.07 338.97Q83.66 338.62 84.39 338.40Q85.12 338.18 85.91 338.18L85.91 338.18Q86.96 338.18 87.59 338.49Q88.23 338.80 88.52 339.40Q88.81 339.99 88.81 340.86L88.81 340.86L88.81 345.91Q88.81 346.27 88.92 346.50Q89.02 346.74 89.23 346.85Q89.44 346.97 89.75 346.97L89.75 346.97Q90.00 346.97 90.29 346.88Q90.57 346.79 90.86 346.65L90.86 346.65L90.86 347.23Q90.40 347.73 89.88 347.96Q89.35 348.19 88.90 348.19L88.90 348.19Q88.35 348.19 87.95 347.93Q87.55 347.68 87.34 347.20Q87.13 346.71 87.13 346.02L87.13 346.02L87.20 345.93Q87.05 346.61 86.65 347.13Q86.25 347.64 85.67 347.93Q85.09 348.22 84.39 348.22L84.39 348.22Q83.19 348.22 82.45 347.58Q81.70 346.93 81.70 345.72L81.70 345.72Q81.70 345.07 81.96 344.54Q82.23 344.01 82.90 343.55Q83.57 343.08 84.78 342.66Q86.00 342.24 87.89 341.81ZM99.46 346.38L99.46 341.31Q99.46 340.34 98.81 339.72Q98.16 339.10 96.84 339.10L96.84 339.10Q95.82 339.10 95.11 339.59Q94.39 340.08 94.02 340.98Q93.65 341.88 93.65 343.12L93.65 343.12Q93.65 344.35 94.05 345.19Q94.45 346.04 95.17 346.47Q95.89 346.90 96.86 346.90L96.86 346.90Q97.72 346.90 98.53 346.63Q99.34 346.36 100.12 345.80L100.12 345.80L100.12 346.51Q99.25 347.05 98.66 347.39Q98.07 347.74 97.63 347.91Q97.20 348.09 96.83 348.15Q96.47 348.22 96.09 348.22L96.09 348.22Q94.67 348.22 93.69 347.64Q92.71 347.06 92.21 346.03Q91.72 345.00 91.72 343.63L91.72 343.63Q91.72 342.33 92.14 341.31Q92.55 340.29 93.30 339.57Q94.04 338.85 95.01 338.47Q95.98 338.09 97.06 338.09L97.06 338.09Q97.64 338.09 98.17 338.18Q98.70 338.28 99.26 338.47Q99.81 338.66 100.44 338.99L100.44 338.99L99.46 339.61L99.46 334.27Q99.33 334.13 99.08 333.98Q98.82 333.83 98.52 333.69Q98.21 333.55 97.89 333.41L97.89 333.41L97.89 333.11L101.02 332.27L101.28 332.27L101.16 334.13L101.16 346.27Q101.26 346.37 101.44 346.48Q101.62 346.59 101.84 346.70Q102.06 346.81 102.27 346.89Q102.49 346.97 102.66 347.00L102.66 347.00L102.66 347.35L99.98 348.19L99.73 348.19L99.46 346.38ZM108.49 338.09L108.49 338.09Q109.68 338.09 110.51 338.61Q111.34 339.12 111.81 340.11Q112.28 341.09 112.38 342.51L112.38 342.51L105.35 342.51L105.36 341.64L111.22 341.42L110.50 341.85Q110.43 340.98 110.18 340.36Q109.92 339.74 109.47 339.40Q109.02 339.07 108.35 339.07L108.35 339.07Q107.54 339.07 106.93 339.49Q106.33 339.92 106.00 340.73Q105.67 341.55 105.67 342.76L105.67 342.76Q105.67 344.04 106.14 344.94Q106.61 345.84 107.49 346.32Q108.37 346.80 109.57 346.80L109.57 346.80Q110.04 346.80 110.48 346.69Q110.92 346.57 111.35 346.36Q111.78 346.14 112.18 345.84L112.18 345.84L112.40 346.28Q111.83 346.93 111.21 347.37Q110.59 347.80 109.93 348.01Q109.27 348.22 108.55 348.22L108.55 348.22Q107.20 348.22 106.16 347.59Q105.12 346.97 104.53 345.86Q103.94 344.74 103.94 343.29L103.94 343.29Q103.94 341.83 104.49 340.65Q105.04 339.48 106.06 338.78Q107.09 338.09 108.49 338.09ZM120.52 338.15L120.52 338.15Q121.07 338.15 121.34 338.43Q121.61 338.70 121.61 339.16L121.61 339.16Q121.61 339.68 121.31 340.00Q121.01 340.31 120.51 340.31L120.51 340.31Q120.22 340.31 119.93 340.23Q119.64 340.15 119.33 340.07Q119.02 339.99 118.67 339.99L118.67 339.99Q118.42 339.99 118.12 340.06Q117.82 340.12 117.52 340.25Q117.23 340.38 117.00 340.55L117.00 340.55L116.73 340.17Q117.44 339.63 118.00 339.25Q118.56 338.87 119.02 338.63Q119.48 338.39 119.85 338.27Q120.22 338.15 120.52 338.15ZM117.05 338.08L117.25 340.16L117.25 346.97L119.01 347.48L119.01 348L113.84 348L113.84 347.48L115.54 346.97L115.54 340.41Q115.40 340.27 115.16 340.13Q114.92 340.00 114.59 339.85Q114.26 339.71 113.85 339.55L113.85 339.55L113.85 339.24L116.79 338.08L117.05 338.08Z"/>
<path d="M14.14 388L12.22 388L12.22 371.87L14.29 371.87L20.19 382.04L21.92 385.36L22.03 385.36Q21.92 384.15 21.84 382.83Q21.75 381.51 21.75 380.26L21.75 380.26L21.75 371.87L23.68 371.87L23.68 388L21.59 388L15.72 377.81L13.98 374.51L13.89 374.51Q13.96 375.72 14.05 376.99Q14.14 378.25 14.14 379.53L14.14 379.53L14.14 388ZM32.57 388.29L32.57 388.29Q31.12 388.29 29.84 387.55Q28.57 386.81 27.81 385.42Q27.05 384.02 27.05 382.04L27.05 382.04Q27.05 380.04 27.81 378.64Q28.57 377.24 29.84 376.49Q31.12 375.75 32.57 375.75L32.57 375.75Q33.67 375.75 34.67 376.16Q35.67 376.58 36.44 377.40Q37.21 378.21 37.65 379.38Q38.09 380.54 38.09 382.04L38.09 382.04Q38.09 384.02 37.32 385.42Q36.55 386.81 35.30 387.55Q34.05 388.29 32.57 388.29ZM32.57 386.61L32.57 386.61Q33.61 386.61 34.39 386.04Q35.17 385.47 35.61 384.44Q36.05 383.40 36.05 382.04L36.05 382.04Q36.05 380.65 35.61 379.62Q35.17 378.58 34.39 378.01Q33.61 377.44 32.57 377.44L32.57 377.44Q31.54 377.44 30.76 378.01Q29.98 378.58 29.55 379.62Q29.12 380.65 29.12 382.04L29.12 382.04Q29.12 383.40 29.55 384.44Q29.98 385.47 30.76 386.04Q31.54 386.61 32.57 386.61ZM44.52 388.29L44.52 388.29Q43.26 388.29 42.52 387.79Q41.77 387.30 41.45 386.39Q41.13 385.49 41.13 384.30L41.13 384.30L41.13 377.68L39.35 377.68L39.35 376.16L41.24 376.05L41.46 372.69L43.13 372.69L43.13 376.05L46.39 376.05L46.39 377.68L43.13 377.68L43.13 384.37Q43.13 385.45 43.54 386.05Q43.95 386.66 44.98 386.66L44.98 386.66Q45.31 386.66 45.68 386.56Q46.06 386.46 46.34 386.33L46.34 386.33L46.74 387.85Q46.23 388.02 45.66 388.15Q45.09 388.29 44.52 388.29ZM53.32 388.29L53.32 388.29Q51.87 388.29 50.59 387.55Q49.31 386.81 48.55 385.42Q47.80 384.02 47.80 382.04L47.80 382.04Q47.80 380.04 48.55 378.64Q49.31 377.24 50.59 376.49Q51.87 375.75 53.32 375.75L53.32 375.75Q54.42 375.75 55.42 376.16Q56.42 376.58 57.19 377.40Q57.96 378.21 58.40 379.38Q58.84 380.54 58.84 382.04L58.84 382.04Q58.84 384.02 58.07 385.42Q57.30 386.81 56.05 387.55Q54.79 388.29 53.32 388.29ZM53.32 386.61L53.32 386.61Q54.35 386.61 55.13 386.04Q55.91 385.47 56.35 384.44Q56.79 383.40 56.79 382.04L56.79 382.04Q56.79 380.65 56.35 379.62Q55.91 378.58 55.13 378.01Q54.35 377.44 53.32 377.44L53.32 377.44Q52.28 377.44 51.50 378.01Q50.72 378.58 50.29 379.62Q49.86 380.65 49.86 382.04L49.86 382.04Q49.86 383.40 50.29 384.44Q50.72 385.47 51.50 386.04Q52.28 386.61 53.32 386.61ZM71.60 388.29L71.60 388.29Q69.88 388.29 68.44 387.65Q67.00 387.01 65.97 385.91L65.97 385.91L67.18 384.50Q68.04 385.40 69.20 385.95Q70.37 386.50 71.62 386.50L71.62 386.50Q73.23 386.50 74.12 385.78Q75.01 385.05 75.01 383.89L75.01 383.89Q75.01 383.03 74.65 382.52Q74.28 382.02 73.68 381.68Q73.07 381.33 72.30 381.00L72.30 381.00L69.99 379.99Q69.25 379.66 68.49 379.16Q67.73 378.65 67.22 377.84Q66.72 377.02 66.72 375.86L66.72 375.86Q66.72 374.60 67.38 373.64Q68.04 372.69 69.18 372.14Q70.32 371.59 71.80 371.59L71.80 371.59Q73.25 371.59 74.47 372.14Q75.69 372.69 76.53 373.57L76.53 373.57L75.47 374.87Q74.72 374.18 73.83 373.78Q72.94 373.37 71.80 373.37L71.80 373.37Q70.43 373.37 69.61 374.00Q68.78 374.62 68.78 375.70L68.78 375.70Q68.78 376.49 69.19 377Q69.60 377.51 70.21 377.81Q70.83 378.12 71.47 378.41L71.47 378.41L73.76 379.40Q74.68 379.79 75.44 380.34Q76.20 380.89 76.64 381.71Q77.08 382.52 77.08 383.71L77.08 383.71Q77.08 384.99 76.42 386.03Q75.76 387.08 74.53 387.68Q73.29 388.29 71.60 388.29ZM82.80 388.29L82.80 388.29Q81.81 388.29 81.02 387.89Q80.22 387.49 79.77 386.74Q79.32 385.98 79.32 384.90L79.32 384.90Q79.32 382.94 81.07 381.89Q82.82 380.85 86.65 380.43L86.65 380.43Q86.65 379.66 86.44 378.97Q86.23 378.28 85.70 377.85Q85.17 377.42 84.18 377.42L84.18 377.42Q83.15 377.42 82.24 377.82Q81.32 378.23 80.60 378.69L80.60 378.69L79.83 377.31Q80.38 376.96 81.10 376.59Q81.83 376.23 82.69 375.99Q83.55 375.75 84.51 375.75L84.51 375.75Q85.97 375.75 86.88 376.36Q87.79 376.98 88.22 378.07Q88.65 379.16 88.65 380.65L88.65 380.65L88.65 388L87.00 388L86.82 386.57L86.76 386.57Q85.92 387.27 84.92 387.78Q83.92 388.29 82.80 388.29ZM83.37 386.66L83.37 386.66Q84.23 386.66 85.01 386.26Q85.79 385.87 86.65 385.10L86.65 385.10L86.65 381.77Q84.65 381.99 83.46 382.40Q82.27 382.81 81.76 383.39Q81.26 383.97 81.26 384.77L81.26 384.77Q81.26 385.80 81.87 386.23Q82.49 386.66 83.37 386.66ZM94.46 388L92.43 388L92.43 376.05L94.08 376.05L94.28 377.79L94.33 377.79Q95.18 376.93 96.14 376.34Q97.10 375.75 98.33 375.75L98.33 375.75Q100.22 375.75 101.10 376.94Q101.98 378.14 101.98 380.43L101.98 380.43L101.98 388L99.98 388L99.98 380.70Q99.98 379.00 99.44 378.25Q98.90 377.51 97.71 377.51L97.71 377.51Q96.79 377.51 96.06 377.97Q95.34 378.43 94.46 379.33L94.46 379.33L94.46 388ZM108.98 388.29L108.98 388.29Q107.72 388.29 106.55 387.81Q105.37 387.34 104.53 386.64L104.53 386.64L105.50 385.29Q106.29 385.93 107.13 386.33Q107.97 386.72 109.04 386.72L109.04 386.72Q110.23 386.72 110.81 386.19Q111.40 385.65 111.40 384.85L111.40 384.85Q111.40 384.24 110.99 383.83Q110.58 383.42 109.96 383.13Q109.33 382.83 108.67 382.59L108.67 382.59Q107.83 382.26 107.03 381.85Q106.23 381.44 105.71 380.80Q105.19 380.15 105.19 379.13L105.19 379.13Q105.19 378.17 105.68 377.41Q106.16 376.65 107.09 376.20Q108.01 375.75 109.31 375.75L109.31 375.75Q110.41 375.75 111.36 376.14Q112.32 376.54 113.00 377.11L113.00 377.11L112.04 378.36Q111.42 377.92 110.77 377.62Q110.12 377.31 109.33 377.31L109.33 377.31Q108.19 377.31 107.65 377.82Q107.11 378.34 107.11 379.05L107.11 379.05Q107.11 379.60 107.47 379.97Q107.83 380.34 108.43 380.60Q109.02 380.85 109.68 381.11L109.68 381.11Q110.34 381.36 110.99 381.64Q111.64 381.93 112.16 382.32Q112.67 382.72 112.99 383.30Q113.31 383.89 113.31 384.74L113.31 384.74Q113.31 385.71 112.82 386.53Q112.32 387.34 111.36 387.81Q110.41 388.29 108.98 388.29ZM124.27 388.29L124.27 388.29Q122.73 388.29 121.64 387.64Q120.55 386.99 119.82 385.73L119.82 385.73L121.28 384.68Q121.83 385.67 122.52 386.09Q123.21 386.50 124.07 386.50L124.07 386.50Q125.39 386.50 126.03 385.70Q126.67 384.90 126.67 383.07L126.67 383.07L126.67 371.87L128.71 371.87L128.71 383.27Q128.71 384.66 128.25 385.80Q127.79 386.94 126.81 387.62Q125.83 388.29 124.27 388.29ZM135.07 388L133.05 388L133.05 371.87L137.64 371.87Q139.45 371.87 140.81 372.32Q142.18 372.78 142.92 373.81Q143.67 374.84 143.67 376.60L143.67 376.60Q143.67 378.30 142.92 379.40Q142.18 380.50 140.83 381.04Q139.49 381.58 137.73 381.58L137.73 381.58L135.07 381.58L135.07 388ZM135.07 373.52L135.07 379.93L137.47 379.93Q139.58 379.93 140.61 379.13Q141.65 378.34 141.65 376.60L141.65 376.60Q141.65 374.84 140.58 374.18Q139.51 373.52 137.38 373.52L137.38 373.52L135.07 373.52Z"/>
<path d="M12.77 428.15L12.77 428.15Q12.35 428.15 12.13 427.92Q11.91 427.69 11.91 427.25L11.91 427.25L11.91 413.26Q11.91 412.82 12.13 412.58Q12.35 412.34 12.71 412.34L12.71 412.34Q13.06 412.34 13.22 412.46Q13.39 412.58 13.61 412.89L13.61 412.89L23.20 425.67L22.67 425.67L22.67 413.22Q22.67 412.80 22.89 412.57Q23.11 412.34 23.53 412.34L23.53 412.34Q23.93 412.34 24.13 412.57Q24.34 412.80 24.34 413.22L24.34 413.22L24.34 427.27Q24.34 427.69 24.16 427.92Q23.97 428.15 23.62 428.15L23.62 428.15Q23.29 428.15 23.09 428.02Q22.89 427.89 22.67 427.60L22.67 427.60L13.10 414.82L13.61 414.82L13.61 427.25Q13.61 427.69 13.39 427.92Q13.17 428.15 12.77 428.15ZM31.74 428.20L31.74 428.20Q30.44 428.20 29.59 427.73Q28.74 427.25 28.31 426.31Q27.89 425.36 27.89 423.95L27.89 423.95L27.89 418.06Q27.89 417.59 28.12 417.37Q28.35 417.15 28.77 417.15L28.77 417.15Q29.21 417.15 29.44 417.37Q29.67 417.59 29.67 418.06L29.67 418.06L29.67 423.93Q29.67 425.34 30.25 426.03Q30.83 426.72 32.09 426.72L32.09 426.72Q33.45 426.72 34.31 425.80Q35.17 424.88 35.17 423.38L35.17 423.38L35.17 418.06Q35.17 417.59 35.40 417.37Q35.63 417.15 36.07 417.15L36.07 417.15Q36.49 417.15 36.72 417.37Q36.95 417.59 36.95 418.06L36.95 418.06L36.95 427.23Q36.95 428.15 36.09 428.15L36.09 428.15Q35.67 428.15 35.44 427.91Q35.21 427.67 35.21 427.23L35.21 427.23L35.21 425.23L35.50 425.54Q35.06 426.83 34.06 427.52Q33.06 428.20 31.74 428.20ZM41.17 428.15L41.17 428.15Q40.73 428.15 40.51 427.91Q40.29 427.67 40.29 427.23L40.29 427.23L40.29 418.06Q40.29 417.62 40.51 417.38Q40.73 417.15 41.15 417.15L41.15 417.15Q41.57 417.15 41.80 417.38Q42.03 417.62 42.03 418.06L42.03 418.06L42.03 419.95L41.79 419.68Q42.25 418.41 43.30 417.76Q44.34 417.11 45.71 417.11L45.71 417.11Q46.98 417.11 47.83 417.57Q48.68 418.03 49.09 418.97Q49.51 419.90 49.51 421.33L49.51 421.33L49.51 427.23Q49.51 427.67 49.28 427.91Q49.05 428.15 48.63 428.15L48.63 428.15Q48.19 428.15 47.96 427.91Q47.73 427.67 47.73 427.23L47.73 427.23L47.73 421.44Q47.73 419.95 47.15 419.25Q46.56 418.56 45.29 418.56L45.29 418.56Q43.81 418.56 42.95 419.48Q42.08 420.39 42.08 421.91L42.08 421.91L42.08 427.23Q42.08 428.15 41.17 428.15ZM53.67 428.11L53.67 428.11Q53.23 428.11 53.01 427.86Q52.79 427.60 52.79 427.14L52.79 427.14L52.79 418.14Q52.79 417.68 53.01 417.44Q53.23 417.20 53.67 417.20L53.67 417.20Q54.09 417.20 54.33 417.44Q54.57 417.68 54.57 418.14L54.57 418.14L54.57 427.14Q54.57 427.60 54.34 427.86Q54.11 428.11 53.67 428.11ZM53.67 414.73L53.67 414.73Q53.12 414.73 52.81 414.44Q52.50 414.14 52.50 413.63L52.50 413.63Q52.50 413.11 52.81 412.83Q53.12 412.56 53.67 412.56L53.67 412.56Q54.24 412.56 54.54 412.83Q54.84 413.11 54.84 413.63L54.84 413.63Q54.84 414.14 54.54 414.44Q54.24 414.73 53.67 414.73ZM62.18 428.20L62.18 428.20Q60.93 428.20 60.08 427.75Q59.24 427.30 58.82 426.43Q58.40 425.56 58.40 424.30L58.40 424.30L58.40 418.69L56.93 418.69Q56.55 418.69 56.35 418.51Q56.16 418.32 56.16 417.99L56.16 417.99Q56.16 417.66 56.35 417.48Q56.55 417.31 56.93 417.31L56.93 417.31L58.40 417.31L58.40 414.78Q58.40 414.34 58.64 414.11Q58.88 413.88 59.30 413.88L59.30 413.88Q59.72 413.88 59.95 414.11Q60.18 414.34 60.18 414.78L60.18 414.78L60.18 417.31L62.95 417.31Q63.33 417.31 63.53 417.48Q63.72 417.66 63.72 417.99L63.72 417.99Q63.72 418.32 63.53 418.51Q63.33 418.69 62.95 418.69L62.95 418.69L60.18 418.69L60.18 424.13Q60.18 425.38 60.71 426.03Q61.24 426.68 62.43 426.68L62.43 426.68Q62.84 426.68 63.14 426.59Q63.44 426.50 63.64 426.50L63.64 426.50Q63.83 426.48 63.97 426.64Q64.10 426.79 64.10 427.16L64.10 427.16Q64.10 427.43 64.00 427.65Q63.90 427.87 63.66 427.96L63.66 427.96Q63.39 428.04 62.96 428.12Q62.54 428.20 62.18 428.20ZM69.93 428.20L69.93 428.20Q68.37 428.20 67.22 427.52Q66.08 426.83 65.45 425.59Q64.82 424.35 64.82 422.65L64.82 422.65Q64.82 421.38 65.18 420.36Q65.53 419.33 66.21 418.61Q66.89 417.88 67.83 417.50Q68.76 417.11 69.93 417.11L69.93 417.11Q71.49 417.11 72.63 417.79Q73.78 418.47 74.41 419.72Q75.03 420.96 75.03 422.65L75.03 422.65Q75.03 423.93 74.68 424.94Q74.33 425.95 73.65 426.69Q72.96 427.43 72.03 427.81Q71.09 428.20 69.93 428.20ZM69.93 426.77L69.93 426.77Q70.92 426.77 71.67 426.28Q72.41 425.80 72.82 424.88Q73.23 423.95 73.23 422.65L73.23 422.65Q73.23 420.65 72.34 419.60Q71.45 418.54 69.93 418.54L69.93 418.54Q68.92 418.54 68.18 419.01Q67.44 419.49 67.03 420.40Q66.63 421.31 66.63 422.65L66.63 422.65Q66.63 424.63 67.53 425.70Q68.43 426.77 69.93 426.77Z"/>
<path d="M13.61 468L11.91 468L11.91 452.49L13.32 452.49L23.20 465.67L22.67 465.67L22.67 452.49L24.34 452.49L24.34 468L22.98 468L13.10 454.82L13.61 454.82L13.61 468ZM31.74 468.20L31.74 468.20Q30.44 468.20 29.59 467.73Q28.74 467.25 28.31 466.31Q27.89 465.36 27.89 463.95L27.89 463.95L27.89 457.31L29.67 457.31L29.67 463.93Q29.67 464.88 29.92 465.50Q30.17 466.13 30.72 466.43Q31.27 466.72 32.09 466.72L32.09 466.72Q33.01 466.72 33.69 466.31Q34.38 465.89 34.77 465.14Q35.17 464.39 35.17 463.38L35.17 463.38L35.17 457.31L36.95 457.31L36.95 468L35.21 468L35.21 465.54L35.50 465.54Q35.06 466.83 34.06 467.52Q33.06 468.20 31.74 468.20ZM42.08 468L40.29 468L40.29 457.31L42.03 457.31L42.03 459.68L41.79 459.68Q42.25 458.41 43.30 457.76Q44.34 457.11 45.71 457.11L45.71 457.11Q46.98 457.11 47.83 457.56Q48.68 458.01 49.09 458.96Q49.51 459.90 49.51 461.33L49.51 461.33L49.51 468L47.73 468L47.73 461.44Q47.73 460.45 47.48 459.82Q47.22 459.18 46.69 458.87Q46.15 458.56 45.29 458.56L45.29 458.56Q44.32 458.56 43.59 458.98Q42.87 459.40 42.47 460.15Q42.08 460.89 42.08 461.91L42.08 461.91L42.08 468ZM54.77 454.65L52.57 454.65L52.57 452.64L54.77 452.64L54.77 454.65ZM54.57 468L52.79 468L52.79 457.31L54.57 457.31L54.57 468ZM62.18 468.20L62.18 468.20Q60.29 468.20 59.35 467.19Q58.40 466.17 58.40 464.30L58.40 464.30L58.40 458.69L56.31 458.69L56.31 457.31L58.40 457.31L58.40 454.03L60.18 454.03L60.18 457.31L63.57 457.31L63.57 458.69L60.18 458.69L60.18 464.13Q60.18 465.38 60.71 466.03Q61.24 466.68 62.43 466.68L62.43 466.68Q62.78 466.68 63.13 466.59Q63.48 466.50 63.77 466.42L63.77 466.42L64.08 467.78Q63.79 467.93 63.24 468.07Q62.69 468.20 62.18 468.20ZM69.93 468.20L69.93 468.20Q68.37 468.20 67.22 467.52Q66.08 466.83 65.45 465.59Q64.82 464.35 64.82 462.65L64.82 462.65Q64.82 460.96 65.45 459.72Q66.08 458.47 67.22 457.79Q68.37 457.11 69.93 457.11L69.93 457.11Q71.49 457.11 72.63 457.79Q73.78 458.47 74.41 459.72Q75.03 460.96 75.03 462.65L75.03 462.65Q75.03 464.35 74.41 465.59Q73.78 466.83 72.63 467.52Q71.49 468.20 69.93 468.20ZM69.93 466.77L69.93 466.77Q71.45 466.77 72.34 465.70Q73.23 464.63 73.23 462.63L73.23 462.63Q73.23 460.65 72.34 459.60Q71.45 458.54 69.93 458.54L69.93 458.54Q68.43 458.54 67.53 459.60Q66.63 460.65 66.63 462.63L66.63 462.63Q66.63 464.63 67.53 465.70Q68.43 466.77 69.93 466.77ZM88.63 468.20L88.63 468.20Q87.42 468.20 86.35 467.98Q85.28 467.76 84.39 467.35Q83.50 466.94 82.78 466.35L82.78 466.35L83.41 464.90Q84.16 465.45 84.94 465.83Q85.72 466.22 86.64 466.40Q87.55 466.59 88.63 466.59L88.63 466.59Q90.61 466.59 91.56 465.86Q92.52 465.12 92.52 463.91L92.52 463.91Q92.52 463.27 92.22 462.81Q91.93 462.35 91.26 462.02Q90.59 461.69 89.51 461.47L89.51 461.47L87.22 461.00Q85.15 460.56 84.13 459.56Q83.11 458.56 83.11 456.89L83.11 456.89Q83.11 455.50 83.82 454.47Q84.54 453.44 85.82 452.86Q87.11 452.29 88.76 452.29L88.76 452.29Q89.82 452.29 90.76 452.51Q91.71 452.73 92.51 453.16Q93.31 453.59 93.93 454.21L93.93 454.21L93.29 455.61Q92.30 454.71 91.20 454.31Q90.10 453.90 88.74 453.90L88.74 453.90Q87.57 453.90 86.72 454.25Q85.88 454.60 85.40 455.27Q84.93 455.94 84.93 456.82L84.93 456.82Q84.93 457.88 85.58 458.50Q86.23 459.11 87.70 459.40L87.70 459.40L89.99 459.88Q92.21 460.34 93.28 461.28Q94.35 462.21 94.35 463.82L94.35 463.82Q94.35 465.10 93.65 466.10Q92.96 467.10 91.67 467.65Q90.39 468.20 88.63 468.20ZM100.27 468.20L100.27 468.20Q99.17 468.20 98.30 467.77Q97.43 467.34 96.92 466.59Q96.42 465.84 96.42 464.92L96.42 464.92Q96.42 463.73 97.02 463.05Q97.63 462.37 99.02 462.08Q100.42 461.80 102.84 461.80L102.84 461.80L103.83 461.80L103.83 462.96L102.86 462.96Q101.52 462.96 100.62 463.05Q99.72 463.14 99.19 463.36Q98.66 463.58 98.44 463.93Q98.22 464.28 98.22 464.81L98.22 464.81Q98.22 465.71 98.85 466.28Q99.47 466.86 100.55 466.86L100.55 466.86Q101.43 466.86 102.10 466.44Q102.77 466.02 103.16 465.29Q103.54 464.57 103.54 463.62L103.54 463.62L103.54 461.11Q103.54 459.75 102.99 459.14Q102.44 458.54 101.19 458.54L101.19 458.54Q100.22 458.54 99.32 458.81Q98.42 459.09 97.47 459.71L97.47 459.71L96.86 458.41Q97.43 458.01 98.15 457.71Q98.88 457.42 99.67 457.26Q100.46 457.11 101.19 457.11L101.19 457.11Q102.58 457.11 103.48 457.56Q104.38 458.01 104.82 458.93Q105.26 459.84 105.26 461.27L105.26 461.27L105.26 468L103.59 468L103.59 465.51L103.79 465.51Q103.61 466.35 103.11 466.94Q102.62 467.54 101.89 467.87Q101.17 468.20 100.27 468.20ZM110.34 468L108.56 468L108.56 457.31L110.30 457.31L110.30 459.68L110.06 459.68Q110.52 458.41 111.56 457.76Q112.61 457.11 113.97 457.11L113.97 457.11Q115.25 457.11 116.09 457.56Q116.94 458.01 117.36 458.96Q117.78 459.90 117.78 461.33L117.78 461.33L117.78 468L116.00 468L116.00 461.44Q116.00 460.45 115.74 459.82Q115.49 459.18 114.95 458.87Q114.41 458.56 113.55 458.56L113.55 458.56Q112.59 458.56 111.86 458.98Q111.13 459.40 110.74 460.15Q110.34 460.89 110.34 461.91L110.34 461.91L110.34 468ZM124.66 468.20L124.66 468.20Q123.83 468.20 123.05 468.03Q122.27 467.87 121.59 467.57Q120.92 467.27 120.44 466.86L120.44 466.86L121.01 465.60Q121.54 466.02 122.16 466.30Q122.77 466.57 123.41 466.70Q124.05 466.83 124.71 466.83L124.71 466.83Q125.96 466.83 126.60 466.37Q127.24 465.91 127.24 465.12L127.24 465.12Q127.24 464.50 126.82 464.14Q126.40 463.78 125.50 463.58L125.50 463.58L123.50 463.14Q122.11 462.85 121.44 462.15Q120.77 461.44 120.77 460.32L120.77 460.32Q120.77 459.33 121.29 458.62Q121.80 457.90 122.75 457.51Q123.70 457.11 124.95 457.11L124.95 457.11Q125.70 457.11 126.38 457.26Q127.06 457.42 127.67 457.71Q128.27 458.01 128.71 458.45L128.71 458.45L128.12 459.71Q127.70 459.31 127.17 459.04Q126.64 458.76 126.08 458.62Q125.52 458.47 124.95 458.47L124.95 458.47Q123.72 458.47 123.08 458.96Q122.44 459.44 122.44 460.23L122.44 460.23Q122.44 460.85 122.84 461.25Q123.23 461.64 124.07 461.82L124.07 461.82L126.07 462.24Q127.50 462.54 128.22 463.21Q128.93 463.89 128.93 465.03L128.93 465.03Q128.93 466.00 128.40 466.71Q127.88 467.43 126.92 467.81Q125.96 468.20 124.66 468.20Z"/>
<path d="M17.92 508.40Q16.07 508.40 14.62 507.23Q13.17 506.06 12.35 504.16Q11.54 502.26 11.54 500.17L11.54 500.17Q11.54 498.08 12.35 496.18Q13.17 494.27 14.62 493.11Q16.07 491.94 17.92 491.94L17.92 491.94Q19.77 491.94 21.22 493.11Q22.67 494.27 23.49 496.18Q24.30 498.08 24.30 500.17L24.30 500.17Q24.30 502.26 23.49 504.16Q22.67 506.06 21.22 507.23Q19.77 508.40 17.92 508.40L17.92 508.40ZM17.92 507.69Q20.08 507.69 21.02 505.72Q21.97 503.75 21.97 500.17L21.97 500.17Q21.97 496.56 21.02 494.60Q20.08 492.64 17.92 492.64L17.92 492.64Q15.76 492.64 14.82 494.60Q13.87 496.56 13.87 500.17L13.87 500.17Q13.87 503.75 14.82 505.72Q15.76 507.69 17.92 507.69L17.92 507.69ZM26.02 508L26.02 507.47L27.16 507.47Q27.42 507.47 27.53 507.36Q27.64 507.25 27.64 506.99L27.64 506.99L27.64 493.35Q27.64 493.08 27.53 492.97Q27.42 492.86 27.16 492.86L27.16 492.86L26.02 492.86L26.02 492.34L29.23 492.34L29.23 506.99Q29.23 507.25 29.34 507.36Q29.45 507.47 29.71 507.47L29.71 507.47L30.86 507.47L30.86 508L26.02 508ZM36.27 508.26Q35.23 508.26 34.34 507.57Q33.45 506.88 32.92 505.67Q32.40 504.46 32.40 502.98L32.40 502.98Q32.40 501.51 32.92 500.30Q33.45 499.09 34.34 498.40Q35.23 497.70 36.27 497.70L36.27 497.70Q37.13 497.70 37.81 498.26Q38.49 498.83 38.82 499.62L38.82 499.62L38.91 499.60L38.91 493.35Q38.91 493.08 38.80 492.97Q38.69 492.86 38.42 492.86L38.42 492.86L36.84 492.86L36.84 492.34L40.49 492.34L40.49 506.99Q40.49 507.25 40.60 507.36Q40.71 507.47 40.98 507.47L40.98 507.47L42.12 507.47L42.12 508L38.91 508L38.91 506.37L38.82 506.35Q38.40 507.23 37.75 507.75Q37.10 508.26 36.27 508.26L36.27 508.26ZM36.51 507.65Q37.17 507.65 37.72 507.16Q38.27 506.68 38.59 505.83Q38.91 504.99 38.91 504.00L38.91 504.00L38.91 501.97Q38.91 500.98 38.59 500.13Q38.27 499.29 37.72 498.80Q37.17 498.32 36.51 498.32L36.51 498.32Q35.43 498.32 34.88 499.53Q34.33 500.74 34.33 502.98L34.33 502.98Q34.33 505.23 34.88 506.44Q35.43 507.65 36.51 507.65L36.51 507.65ZM56.71 508.40Q55.78 508.40 54.89 507.99Q54.00 507.58 53.34 507.10L53.34 507.10Q52.42 506.39 52.24 506.39L52.24 506.39Q51.80 506.39 51.67 507.34L51.67 507.34L51.58 508.22L51.07 508.22L50.92 501.27L51.45 501.27Q51.58 502.90 52.36 504.38Q53.14 505.87 54.31 506.78Q55.47 507.69 56.71 507.69L56.71 507.69Q58.51 507.69 59.33 506.81Q60.16 505.93 60.16 504.70L60.16 504.70Q60.16 503.62 59.53 503.01Q58.91 502.39 57.70 501.91L57.70 501.91L54.35 500.56Q52.61 499.86 51.79 498.75Q50.96 497.64 50.96 496.08L50.96 496.08Q50.96 493.96 52.20 492.95Q53.43 491.94 55.28 491.94L55.28 491.94Q56.73 491.94 58.49 493.26L58.49 493.26Q58.71 493.41 58.93 493.54Q59.15 493.66 59.32 493.66L59.32 493.66Q59.70 493.66 59.76 493.13L59.76 493.13L59.85 492.34L60.38 492.34L60.60 498.06L60.07 498.06Q59.72 496.47 58.96 495.24Q58.20 494.01 57.19 493.33Q56.18 492.64 55.10 492.64L55.10 492.64Q53.87 492.64 53.08 493.45Q52.28 494.25 52.28 495.68L52.28 495.68Q52.28 496.67 52.79 497.22Q53.30 497.77 54.29 498.17L54.29 498.17L58.53 499.86Q60.01 500.45 60.74 501.55Q61.48 502.65 61.48 503.86L61.48 503.86Q61.48 505.03 60.96 506.06Q60.45 507.10 59.38 507.75Q58.31 508.40 56.71 508.40L56.71 508.40ZM67.16 508.26Q66.17 508.26 65.52 507.56Q64.87 506.86 64.87 505.65L64.87 505.65L64.87 498.58L63.24 498.58L63.24 497.97L63.72 497.97Q64.71 497.97 65.27 496.90Q65.84 495.83 65.84 494.54L65.84 494.54L65.84 493.74L66.45 493.74L66.45 497.97L69.18 497.97L69.18 498.58L66.45 498.58L66.45 505.76Q66.45 506.42 66.72 506.86Q66.98 507.30 67.62 507.30L67.62 507.30Q69.18 507.30 69.18 504.66L69.18 504.66L69.58 504.66Q69.58 506.13 69.15 507.20Q68.72 508.26 67.16 508.26L67.16 508.26ZM74.20 508.26Q73.03 508.26 72.18 507.69Q71.34 507.12 71.34 505.67L71.34 505.67Q71.34 504.55 71.91 503.91Q72.48 503.27 73.24 503.00Q74.00 502.72 75.08 502.52L75.08 502.52L77.10 502.15L77.10 500.28Q77.10 498.23 75.05 498.23L75.05 498.23Q74.31 498.23 73.69 498.62Q73.07 499.00 73.07 499.49L73.07 499.49Q73.07 499.71 73.14 499.82L73.14 499.82Q73.18 499.88 73.28 499.95Q73.38 500.01 73.47 500.04L73.47 500.04Q73.87 500.15 74.08 500.34Q74.28 500.54 74.28 500.89L74.28 500.89Q74.28 501.36 74.01 501.55Q73.73 501.75 73.32 501.75L73.32 501.75Q72.83 501.75 72.44 501.38Q72.04 501.00 72.04 500.30L72.04 500.30Q72.04 499.49 72.49 498.89Q72.94 498.30 73.66 498.00Q74.37 497.70 75.12 497.70L75.12 497.70Q76.57 497.70 77.63 498.46Q78.68 499.22 78.68 500.83L78.68 500.83L78.68 506.24Q78.68 507.34 79.37 507.34L79.37 507.34Q79.92 507.34 80.16 506.70Q80.40 506.06 80.40 505.14L80.40 505.14L80.80 505.14Q80.80 506.46 80.41 507.36Q80.03 508.26 79.04 508.26L79.04 508.26Q78.09 508.26 77.62 507.70Q77.14 507.14 77.10 506.15L77.10 506.15L76.99 506.11Q76.66 506.88 75.92 507.57Q75.19 508.26 74.20 508.26L74.20 508.26ZM74.55 507.47Q75.54 507.47 76.10 506.69Q76.66 505.91 77.10 504.70L77.10 504.70L77.10 502.61L75.19 503.03Q74.13 503.25 73.66 503.90Q73.18 504.55 73.18 505.73L73.18 505.73Q73.18 506.75 73.60 507.11Q74.02 507.47 74.55 507.47L74.55 507.47ZM82.03 508L82.03 507.47L82.95 507.47Q83.22 507.47 83.33 507.36Q83.44 507.25 83.44 506.99L83.44 506.99L83.44 498.98Q83.44 498.72 83.33 498.61Q83.22 498.50 82.95 498.50L82.95 498.50L82.03 498.50L82.03 497.97L85.02 497.97L85.02 499.77L85.11 499.79Q85.61 498.74 86.36 498.22Q87.11 497.70 88.01 497.70L88.01 497.70Q89.62 497.70 90.29 498.69Q90.96 499.68 90.96 501.07L90.96 501.07L90.96 506.99Q90.96 507.25 91.07 507.36Q91.18 507.47 91.44 507.47L91.44 507.47L92.37 507.47L92.37 508L87.97 508L87.97 507.47L88.89 507.47Q89.16 507.47 89.27 507.36Q89.38 507.25 89.38 506.99L89.38 506.99L89.38 500.65Q89.38 499.68 88.99 499.00Q88.61 498.32 87.68 498.32L87.68 498.32Q86.91 498.32 86.31 498.86Q85.70 499.40 85.36 500.33Q85.02 501.27 85.02 502.41L85.02 502.41L85.02 506.99Q85.02 507.25 85.13 507.36Q85.24 507.47 85.50 507.47L85.50 507.47L86.43 507.47L86.43 508L82.03 508ZM98.00 508.26Q96.97 508.26 96.07 507.57Q95.18 506.88 94.66 505.67Q94.13 504.46 94.13 502.98L94.13 502.98Q94.13 501.51 94.66 500.30Q95.18 499.09 96.07 498.40Q96.97 497.70 98.00 497.70L98.00 497.70Q98.86 497.70 99.54 498.26Q100.22 498.83 100.55 499.62L100.55 499.62L100.64 499.60L100.64 493.35Q100.64 493.08 100.53 492.97Q100.42 492.86 100.16 492.86L100.16 492.86L98.57 492.86L98.57 492.34L102.22 492.34L102.22 506.99Q102.22 507.25 102.33 507.36Q102.44 507.47 102.71 507.47L102.71 507.47L103.85 507.47L103.85 508L100.64 508L100.64 506.37L100.55 506.35Q100.13 507.23 99.48 507.75Q98.84 508.26 98.00 508.26L98.00 508.26ZM98.24 507.65Q98.90 507.65 99.45 507.16Q100.00 506.68 100.32 505.83Q100.64 504.99 100.64 504.00L100.64 504.00L100.64 501.97Q100.64 500.98 100.32 500.13Q100.00 499.29 99.45 498.80Q98.90 498.32 98.24 498.32L98.24 498.32Q97.16 498.32 96.61 499.53Q96.06 500.74 96.06 502.98L96.06 502.98Q96.06 505.23 96.61 506.44Q97.16 507.65 98.24 507.65L98.24 507.65ZM108.43 508.26Q107.26 508.26 106.41 507.69Q105.57 507.12 105.57 505.67L105.57 505.67Q105.57 504.55 106.14 503.91Q106.71 503.27 107.47 503.00Q108.23 502.72 109.31 502.52L109.31 502.52L111.33 502.15L111.33 500.28Q111.33 498.23 109.29 498.23L109.29 498.23Q108.54 498.23 107.92 498.62Q107.31 499.00 107.31 499.49L107.31 499.49Q107.31 499.71 107.37 499.82L107.37 499.82Q107.42 499.88 107.51 499.95Q107.61 500.01 107.70 500.04L107.70 500.04Q108.10 500.15 108.31 500.34Q108.52 500.54 108.52 500.89L108.52 500.89Q108.52 501.36 108.24 501.55Q107.97 501.75 107.55 501.75L107.55 501.75Q107.06 501.75 106.67 501.38Q106.27 501.00 106.27 500.30L106.27 500.30Q106.27 499.49 106.72 498.89Q107.17 498.30 107.89 498.00Q108.60 497.70 109.35 497.70L109.35 497.70Q110.80 497.70 111.86 498.46Q112.92 499.22 112.92 500.83L112.92 500.83L112.92 506.24Q112.92 507.34 113.60 507.34L113.60 507.34Q114.15 507.34 114.39 506.70Q114.63 506.06 114.63 505.14L114.63 505.14L115.03 505.14Q115.03 506.46 114.64 507.36Q114.26 508.26 113.27 508.26L113.27 508.26Q112.32 508.26 111.85 507.70Q111.38 507.14 111.33 506.15L111.33 506.15L111.22 506.11Q110.89 506.88 110.15 507.57Q109.42 508.26 108.43 508.26L108.43 508.26ZM108.78 507.47Q109.77 507.47 110.33 506.69Q110.89 505.91 111.33 504.70L111.33 504.70L111.33 502.61L109.42 503.03Q108.36 503.25 107.89 503.90Q107.42 504.55 107.42 505.73L107.42 505.73Q107.42 506.75 107.83 507.11Q108.25 507.47 108.78 507.47L108.78 507.47ZM116.26 508L116.26 507.47L117.18 507.47Q117.45 507.47 117.56 507.36Q117.67 507.25 117.67 506.99L117.67 506.99L117.67 498.98Q117.67 498.72 117.56 498.61Q117.45 498.50 117.18 498.50L117.18 498.50L116.26 498.50L116.26 497.97L119.25 497.97L119.25 500.17L119.34 500.19Q119.80 499.05 120.54 498.38Q121.28 497.70 122.11 497.70L122.11 497.70Q122.95 497.70 123.48 498.19Q124.00 498.67 124.00 499.51L124.00 499.51Q124.00 499.99 123.66 500.45Q123.32 500.92 122.79 500.92L122.79 500.92Q122.38 500.92 122.09 500.70Q121.80 500.48 121.80 500.08L121.80 500.08Q121.80 499.62 122.24 499.29L122.24 499.29Q122.44 499.16 122.54 499.05Q122.64 498.94 122.64 498.76L122.64 498.76Q122.64 498.56 122.45 498.44Q122.27 498.32 121.94 498.32L121.94 498.32Q121.25 498.32 120.63 498.98Q120.00 499.64 119.63 500.70Q119.25 501.75 119.25 502.90L119.25 502.90L119.25 506.99Q119.25 507.25 119.36 507.36Q119.47 507.47 119.74 507.47L119.74 507.47L120.66 507.47L120.66 508L116.26 508ZM129.37 508.26Q128.34 508.26 127.45 507.57Q126.56 506.88 126.03 505.67Q125.50 504.46 125.50 502.98L125.50 502.98Q125.50 501.51 126.03 500.30Q126.56 499.09 127.45 498.40Q128.34 497.70 129.37 497.70L129.37 497.70Q130.23 497.70 130.91 498.26Q131.59 498.83 131.92 499.62L131.92 499.62L132.01 499.60L132.01 493.35Q132.01 493.08 131.90 492.97Q131.79 492.86 131.53 492.86L131.53 492.86L129.94 492.86L129.94 492.34L133.60 492.34L133.60 506.99Q133.60 507.25 133.71 507.36Q133.82 507.47 134.08 507.47L134.08 507.47L135.22 507.47L135.22 508L132.01 508L132.01 506.37L131.92 506.35Q131.51 507.23 130.86 507.75Q130.21 508.26 129.37 508.26L129.37 508.26ZM129.61 507.65Q130.27 507.65 130.82 507.16Q131.37 506.68 131.69 505.83Q132.01 504.99 132.01 504.00L132.01 504.00L132.01 501.97Q132.01 500.98 131.69 500.13Q131.37 499.29 130.82 498.80Q130.27 498.32 129.61 498.32L129.61 498.32Q128.54 498.32 127.99 499.53Q127.44 500.74 127.44 502.98L127.44 502.98Q127.44 505.23 127.99 506.44Q128.54 507.65 129.61 507.65L129.61 507.65ZM146.44 508L146.44 507.30L148.56 507.30Q149.15 507.30 149.15 506.70L149.15 506.70L149.15 493.57Q149.15 493.26 149.02 493.12Q148.89 492.97 148.56 492.97L148.56 492.97L147.76 492.97Q146.38 492.97 145.37 494.38L145.37 494.38Q144.73 495.28 144.51 496.64Q144.29 497.99 144.29 498.63L144.29 498.63L143.67 498.63L143.85 492.34L156.48 492.34L156.65 498.63L156.04 498.63Q156.04 497.99 155.82 496.64Q155.60 495.28 154.96 494.38L154.96 494.38Q153.95 492.97 152.56 492.97L152.56 492.97L151.77 492.97Q151.44 492.97 151.31 493.12Q151.17 493.26 151.17 493.57L151.17 493.57L151.17 506.70Q151.17 507.30 151.77 507.30L151.77 507.30L153.88 507.30L153.88 508L146.44 508ZM162.15 508L162.15 507.30L164.26 507.30Q164.86 507.30 164.86 506.70L164.86 506.70L164.86 493.57Q164.86 493.26 164.73 493.12Q164.59 492.97 164.26 492.97L164.26 492.97L163.47 492.97Q162.09 492.97 161.07 494.38L161.07 494.38Q160.44 495.28 160.22 496.64Q160.00 497.99 160.00 498.63L160.00 498.63L159.38 498.63L159.56 492.34L172.18 492.34L172.36 498.63L171.74 498.63Q171.74 497.99 171.52 496.64Q171.30 495.28 170.67 494.38L170.67 494.38Q169.65 492.97 168.27 492.97L168.27 492.97L167.48 492.97Q167.15 492.97 167.01 493.12Q166.88 493.26 166.88 493.57L166.88 493.57L166.88 506.70Q166.88 507.30 167.48 507.30L167.48 507.30L169.59 507.30L169.59 508L162.15 508Z"/>
<path d="M25.77 540.13L25.77 540.13Q25.77 541.94 25.31 543.43Q24.85 544.92 23.94 545.99Q23.03 547.05 21.69 547.63Q20.34 548.21 18.57 548.21L18.57 548.21Q16.75 548.21 15.39 547.63Q14.03 547.05 13.13 545.98Q12.23 544.91 11.79 543.41Q11.34 541.92 11.34 540.10L11.34 540.10Q11.34 537.70 12.14 535.88Q12.93 534.07 14.55 533.06Q16.17 532.05 18.60 532.05L18.60 532.05Q20.94 532.05 22.53 533.05Q24.13 534.05 24.95 535.86Q25.77 537.67 25.77 540.13ZM13.27 540.13L13.27 540.13Q13.27 542.12 13.83 543.58Q14.40 545.05 15.58 545.84Q16.76 546.64 18.57 546.64L18.57 546.64Q20.40 546.64 21.56 545.84Q22.73 545.05 23.29 543.58Q23.85 542.12 23.85 540.13L23.85 540.13Q23.85 537.09 22.57 535.37Q21.30 533.66 18.60 533.66L18.60 533.66Q16.78 533.66 15.60 534.44Q14.42 535.23 13.84 536.67Q13.27 538.12 13.27 540.13ZM34.52 536.01L34.52 536.01Q36.73 536.01 38.04 537.53Q39.35 539.04 39.35 542.08L39.35 542.08Q39.35 544.09 38.75 545.45Q38.14 546.82 37.05 547.52Q35.96 548.21 34.48 548.21L34.48 548.21Q33.55 548.21 32.84 547.97Q32.13 547.72 31.62 547.30Q31.12 546.88 30.79 546.39L30.79 546.39L30.66 546.39Q30.69 546.81 30.74 547.40Q30.79 547.99 30.79 548.43L30.79 548.43L30.79 553.26L28.99 553.26L28.99 536.23L30.46 536.23L30.70 537.97L30.79 537.97Q31.13 537.43 31.62 536.98Q32.12 536.54 32.83 536.27Q33.55 536.01 34.52 536.01ZM34.21 537.52L34.21 537.52Q32.99 537.52 32.24 537.99Q31.50 538.46 31.15 539.40Q30.81 540.34 30.79 541.76L30.79 541.76L30.79 542.10Q30.79 543.60 31.11 544.63Q31.44 545.66 32.20 546.20Q32.96 546.73 34.23 546.73L34.23 546.73Q35.33 546.73 36.06 546.14Q36.79 545.55 37.15 544.49Q37.51 543.43 37.51 542.06L37.51 542.06Q37.51 539.98 36.70 538.75Q35.89 537.52 34.21 537.52ZM46.99 536.01L46.99 536.01Q48.49 536.01 49.56 536.68Q50.64 537.34 51.21 538.54Q51.78 539.74 51.78 541.34L51.78 541.34L51.78 542.45L43.64 542.45Q43.68 544.52 44.68 545.60Q45.67 546.69 47.49 546.69L47.49 546.69Q48.61 546.69 49.47 546.49Q50.33 546.28 51.25 545.88L51.25 545.88L51.25 547.45Q50.36 547.85 49.48 548.03Q48.61 548.21 47.42 548.21L47.42 548.21Q45.72 548.21 44.46 547.52Q43.19 546.83 42.50 545.49Q41.80 544.14 41.80 542.20L41.80 542.20Q41.80 540.30 42.44 538.91Q43.08 537.52 44.24 536.76Q45.41 536.01 46.99 536.01ZM46.96 537.47L46.96 537.47Q45.54 537.47 44.69 538.41Q43.84 539.34 43.68 541.02L43.68 541.02L49.91 541.02Q49.90 539.96 49.58 539.16Q49.26 538.36 48.62 537.92Q47.97 537.47 46.96 537.47ZM60.38 536.01L60.38 536.01Q62.48 536.01 63.55 537.04Q64.62 538.06 64.62 540.33L64.62 540.33L64.62 548L62.86 548L62.86 540.45Q62.86 538.98 62.19 538.25Q61.52 537.52 60.13 537.52L60.13 537.52Q58.18 537.52 57.38 538.62Q56.59 539.73 56.59 541.83L56.59 541.83L56.59 548L54.81 548L54.81 536.23L56.25 536.23L56.51 537.92L56.61 537.92Q56.99 537.30 57.57 536.88Q58.15 536.45 58.87 536.23Q59.59 536.01 60.38 536.01ZM83.14 543.82L83.14 543.82Q83.14 545.22 82.45 546.20Q81.76 547.18 80.51 547.70Q79.27 548.21 77.58 548.21L77.58 548.21Q76.69 548.21 75.89 548.13Q75.10 548.04 74.43 547.88Q73.77 547.72 73.26 547.48L73.26 547.48L73.26 545.73Q74.07 546.07 75.23 546.35Q76.39 546.64 77.65 546.64L77.65 546.64Q78.84 546.64 79.65 546.32Q80.47 546.00 80.89 545.41Q81.32 544.81 81.32 543.97L81.32 543.97Q81.32 543.17 80.96 542.62Q80.61 542.08 79.79 541.64Q78.96 541.19 77.55 540.68L77.55 540.68Q76.55 540.33 75.79 539.91Q75.02 539.48 74.51 538.94Q73.99 538.41 73.73 537.70Q73.46 536.99 73.46 536.08L73.46 536.08Q73.46 534.82 74.10 533.92Q74.74 533.03 75.88 532.55Q77.01 532.07 78.48 532.07L78.48 532.07Q79.74 532.07 80.81 532.31Q81.88 532.54 82.77 532.94L82.77 532.94L82.20 534.51Q81.35 534.15 80.40 533.92Q79.45 533.68 78.44 533.68L78.44 533.68Q77.43 533.68 76.74 533.98Q76.04 534.27 75.68 534.81Q75.31 535.35 75.31 536.09L75.31 536.09Q75.31 536.91 75.66 537.46Q76.01 538.01 76.78 538.43Q77.55 538.86 78.81 539.32L78.81 539.32Q80.20 539.83 81.17 540.39Q82.13 540.95 82.64 541.76Q83.14 542.58 83.14 543.82ZM90.48 536.03L90.48 536.03Q92.59 536.03 93.61 536.98Q94.63 537.92 94.63 540.00L94.63 540.00L94.63 548L93.33 548L92.98 546.26L92.90 546.26Q92.40 546.90 91.87 547.34Q91.33 547.77 90.63 547.99Q89.92 548.21 88.90 548.21L88.90 548.21Q87.83 548.21 86.99 547.84Q86.16 547.46 85.68 546.70Q85.21 545.94 85.21 544.77L85.21 544.77Q85.21 543.00 86.60 542.06Q88.00 541.11 90.86 541.03L90.86 541.03L92.89 540.94L92.89 540.22Q92.89 538.70 92.23 538.08Q91.58 537.47 90.38 537.47L90.38 537.47Q89.46 537.47 88.62 537.74Q87.78 538.01 87.03 538.38L87.03 538.38L86.48 537.02Q87.28 536.61 88.31 536.32Q89.34 536.03 90.48 536.03ZM92.87 543.28L92.87 542.20L91.07 542.27Q88.87 542.36 87.97 542.99Q87.06 543.63 87.06 544.79L87.06 544.79Q87.06 545.80 87.68 546.28Q88.29 546.76 89.30 546.76L89.30 546.76Q90.87 546.76 91.87 545.89Q92.87 545.02 92.87 543.28L92.87 543.28ZM103.88 536.01L103.88 536.01Q105.97 536.01 107.04 537.04Q108.12 538.06 108.12 540.33L108.12 540.33L108.12 548L106.36 548L106.36 540.45Q106.36 538.98 105.69 538.25Q105.01 537.52 103.63 537.52L103.63 537.52Q101.67 537.52 100.88 538.62Q100.08 539.73 100.08 541.83L100.08 541.83L100.08 548L98.30 548L98.30 536.23L99.74 536.23L100.01 537.92L100.11 537.92Q100.48 537.30 101.06 536.88Q101.64 536.45 102.36 536.23Q103.08 536.01 103.88 536.01ZM119.41 544.78L119.41 544.78Q119.41 545.91 118.85 546.67Q118.28 547.44 117.23 547.83Q116.19 548.21 114.74 548.21L114.74 548.21Q113.50 548.21 112.60 548.02Q111.70 547.83 111.02 547.47L111.02 547.47L111.02 545.83Q111.74 546.18 112.74 546.47Q113.74 546.76 114.78 546.76L114.78 546.76Q116.30 546.76 116.99 546.27Q117.68 545.78 117.68 544.93L117.68 544.93Q117.68 544.44 117.41 544.07Q117.13 543.70 116.49 543.35Q115.84 543.00 114.70 542.59L114.70 542.59Q113.58 542.16 112.75 541.73Q111.93 541.31 111.49 540.70Q111.04 540.08 111.04 539.11L111.04 539.11Q111.04 537.61 112.25 536.81Q113.46 536.01 115.42 536.01L115.42 536.01Q116.49 536.01 117.42 536.22Q118.35 536.43 119.15 536.79L119.15 536.79L118.55 538.21Q117.82 537.90 116.99 537.69Q116.17 537.47 115.31 537.47L115.31 537.47Q114.07 537.47 113.41 537.88Q112.75 538.29 112.75 539.00L112.75 539.00Q112.75 539.55 113.06 539.90Q113.36 540.25 114.04 540.57Q114.71 540.88 115.82 541.30L115.82 541.30Q116.93 541.71 117.73 542.14Q118.54 542.58 118.97 543.19Q119.41 543.81 119.41 544.78Z"/>
<path d="M15.94 588.20L15.94 588.20Q14.14 588.20 13.06 587.49Q11.98 586.79 11.52 585.48Q11.06 584.17 11.06 582.41L11.06 582.41L11.06 575.66Q11.06 573.90 11.53 572.63Q12.00 571.37 13.07 570.70Q14.14 570.03 15.94 570.03L15.94 570.03Q17.74 570.03 18.80 570.71Q19.86 571.39 20.33 572.64Q20.80 573.90 20.80 575.66L20.80 575.66L20.80 582.43Q20.80 584.17 20.33 585.47Q19.86 586.77 18.80 587.48Q17.74 588.20 15.94 588.20ZM15.94 586.24L15.94 586.24Q16.93 586.24 17.44 585.83Q17.94 585.43 18.12 584.69Q18.29 583.95 18.29 582.96L18.29 582.96L18.29 575.15Q18.29 574.16 18.12 573.45Q17.94 572.73 17.44 572.35Q16.93 571.96 15.94 571.96L15.94 571.96Q14.95 571.96 14.43 572.35Q13.92 572.73 13.74 573.45Q13.56 574.16 13.56 575.15L13.56 575.15L13.56 582.96Q13.56 583.95 13.74 584.69Q13.92 585.43 14.43 585.83Q14.95 586.24 15.94 586.24ZM25.99 588.18L25.99 588.18Q24.43 588.18 23.49 587.20Q22.54 586.22 22.41 584.61L22.41 584.61L24.37 584.02Q24.54 585.23 24.96 585.83Q25.38 586.44 26.19 586.44L26.19 586.44Q26.83 586.44 27.16 586.08Q27.49 585.71 27.49 585.10L27.49 585.10Q27.49 584.55 27.25 584.11Q27.01 583.67 26.46 583.20L26.46 583.20L24.28 581.33Q23.62 580.76 23.17 580.06Q22.72 579.35 22.72 578.23L22.72 578.23Q22.72 577.22 23.12 576.53Q23.53 575.83 24.27 575.47Q25.00 575.11 25.99 575.11L25.99 575.11Q27.58 575.11 28.41 576.09Q29.25 577.07 29.38 578.45L29.38 578.45L27.71 579.05Q27.62 578.39 27.45 577.89Q27.27 577.40 26.94 577.12Q26.61 576.85 26.08 576.85L26.08 576.85Q25.51 576.85 25.17 577.23Q24.83 577.62 24.83 578.14L24.83 578.14Q24.83 578.47 24.97 578.79Q25.11 579.11 25.47 579.42L25.47 579.42L27.71 581.49Q28.17 581.91 28.58 582.39Q28.99 582.87 29.25 583.49Q29.51 584.11 29.51 584.92L29.51 584.92Q29.51 586.00 29.07 586.72Q28.63 587.45 27.84 587.81Q27.05 588.18 25.99 588.18ZM34.86 588L32.75 588L30.70 575.28L32.64 575.28L33.96 584.66L35.65 575.28L37.46 575.28L39.15 584.61L40.47 575.28L42.41 575.28L40.29 588L38.31 588L36.58 579.02L34.86 588ZM45.99 588.18L45.99 588.18Q45.24 588.18 44.67 587.75Q44.10 587.32 43.77 586.65Q43.44 585.98 43.44 585.23L43.44 585.23Q43.44 584.04 43.84 583.23Q44.23 582.41 44.92 581.85Q45.62 581.29 46.53 580.87Q47.44 580.45 48.46 580.06L48.46 580.06L48.46 579.16Q48.46 578.39 48.37 577.88Q48.28 577.37 48.01 577.12Q47.73 576.87 47.18 576.87L47.18 576.87Q46.70 576.87 46.40 577.09Q46.10 577.31 45.97 577.72Q45.84 578.12 45.84 578.67L45.84 578.67L45.84 579.31L43.51 579.22Q43.55 577.11 44.47 576.11Q45.40 575.11 47.33 575.11L47.33 575.11Q49.23 575.11 50.02 576.14Q50.81 577.18 50.81 579.13L50.81 579.13L50.81 584.94Q50.81 585.54 50.84 586.09Q50.88 586.64 50.93 587.11Q50.99 587.58 51.03 588L51.03 588L48.87 588Q48.81 587.65 48.71 587.11Q48.61 586.57 48.57 586.13L48.57 586.13Q48.35 586.88 47.72 587.53Q47.09 588.18 45.99 588.18ZM46.92 586.15L46.92 586.15Q47.27 586.15 47.58 585.95Q47.88 585.76 48.13 585.50Q48.37 585.25 48.46 585.10L48.46 585.10L48.46 581.49Q47.91 581.80 47.42 582.10Q46.94 582.41 46.58 582.75Q46.21 583.09 46.00 583.52Q45.79 583.95 45.79 584.50L45.79 584.50Q45.79 585.27 46.08 585.71Q46.37 586.15 46.92 586.15ZM55.65 588L53.30 588L53.30 570.18L55.65 570.18L55.65 588ZM61.06 588.18L61.06 588.18Q59.46 588.18 58.66 587.00Q57.87 585.82 57.87 583.01L57.87 583.01L57.87 580.54Q57.87 579.09 58.11 577.85Q58.36 576.60 59.03 575.86Q59.70 575.11 61.00 575.11L61.00 575.11Q61.63 575.11 62.16 575.39Q62.69 575.68 63.11 576.10L63.11 576.10L63.11 570.18L65.46 570.18L65.46 588L63.11 588L63.11 587.19Q62.69 587.63 62.19 587.90Q61.70 588.18 61.06 588.18ZM61.66 586.33L61.66 586.33Q61.99 586.33 62.36 586.21Q62.73 586.09 63.11 585.84L63.11 585.84L63.11 577.51Q62.80 577.29 62.43 577.12Q62.05 576.96 61.61 576.96L61.61 576.96Q60.80 576.96 60.51 577.74Q60.23 578.52 60.23 579.62L60.23 579.62L60.23 583.20Q60.23 584.08 60.32 584.80Q60.42 585.51 60.73 585.92Q61.04 586.33 61.66 586.33Z"/>
</svg>